<svg xmlns="http://www.w3.org/2000/svg" xmlns:xlink="http://www.w3.org/1999/xlink" width="2380" zoomAndPan="magnify" viewBox="0 0 1784.88 1784.99993" height="2380" preserveAspectRatio="xMidYMid meet" version="1.0"><defs><clipPath id="2c7b2379df"><path d="M 243 1075 L 908 1075 L 908 1706.441406 L 243 1706.441406 Z M 243 1075 " clip-rule="nonzero"/></clipPath><clipPath id="7711611884"><path d="M 1036 73.054688 L 1383 73.054688 L 1383 624 L 1036 624 Z M 1036 73.054688 " clip-rule="nonzero"/></clipPath></defs><path fill="#e93405" d="M 266.125 959.046875 C 280.644531 994.734375 301.25 1017.902344 327.128906 1045.285156 C 303.015625 1046.367188 282.109375 1069.460938 283.421875 1093.578125 C 290.527344 1093.289062 297.640625 1093 304.757812 1092.710938 C 288.691406 1119.125 273.308594 1146.90625 268.636719 1177.460938 C 263.980469 1208.035156 271.984375 1242.246094 295.945312 1261.785156 C 308.988281 1272.417969 325.492188 1277.863281 341.914062 1281.496094 C 422.210938 1299.269531 510.398438 1276.707031 572.289062 1222.558594 C 552.488281 1241.207031 559.328125 1278.554688 583.027344 1291.898438 C 606.726562 1305.265625 639.546875 1294.816406 654.433594 1272.070312 C 642.277344 1390.558594 767.609375 1457.511719 867.546875 1468.238281 C 901.230469 1471.859375 935.355469 1474.589844 968.9375 1470.023438 C 1041.1875 1460.164062 1102.316406 1434.386719 1159.734375 1391.457031 C 1163.542969 1388.609375 1167.507812 1385.691406 1172.179688 1384.894531 C 1179.328125 1383.671875 1186.214844 1387.605469 1192.601562 1391.007812 C 1240.886719 1416.625 1301.683594 1417.074219 1350.328125 1392.160156 C 1363.832031 1385.25 1376.953125 1375.910156 1383.515625 1362.242188 C 1390.089844 1348.574219 1387.96875 1329.855469 1375.488281 1321.238281 C 1418.34375 1315.125 1457.5625 1287.480469 1477.722656 1249.164062 C 1497.890625 1210.863281 1498.480469 1162.882812 1479.257812 1124.09375 C 1490.671875 1147.140625 1784.394531 1010.777344 1671.472656 906.109375 C 1706.808594 879.847656 1739.109375 844.65625 1746.179688 801.199219 C 1756.523438 737.601562 1707.878906 676.242188 1648.917969 650.28125 C 1589.953125 624.304688 1523.101562 625.449219 1458.695312 627.15625 C 1474.953125 611.273438 1491.792969 594.480469 1498.664062 572.808594 C 1505.539062 551.160156 1498.605469 523.269531 1477.734375 514.261719 C 1468.371094 510.214844 1457.714844 510.492188 1447.53125 511.378906 C 1413.257812 514.390625 1379.550781 523.699219 1348.574219 538.714844 C 1375.257812 492.257812 1371.109375 430.574219 1340.433594 386.652344 C 1309.757812 342.734375 1254.839844 317.742188 1201.367188 320.902344 C 1160.449219 323.324219 1094.671875 352.617188 1079.3125 395.8125 C 1088.929688 368.765625 1072.230469 335.03125 1044.566406 327.300781 C 1016.910156 319.585938 984.574219 340.855469 981.761719 369.445312 C 978.925781 335.363281 971.21875 300.84375 952.539062 272.207031 C 916.222656 216.578125 843.363281 196.832031 784.273438 219.507812 C 715.011719 246.09375 652.875 320.394531 659.714844 398.246094 C 658.03125 379.042969 626.515625 377.738281 615.628906 393.65625 C 604.730469 409.570312 608.464844 430.898438 612.640625 449.730469 C 604.730469 410.621094 589.449219 367.496094 552.917969 351.464844 C 513.394531 334.128906 464.382812 359.804688 445.992188 398.84375 C 427.574219 437.875 434.433594 484.816406 452.367188 524.078125 C 436.140625 517.871094 417.148438 516.824219 401.824219 525.023438 C 386.507812 533.210938 376.429688 552.023438 381.550781 568.632812 C 386.667969 585.230469 409.15625 594.882812 423.191406 584.617188 C 267.335938 623.695312 210.492188 822.351562 266.125 959.046875 " fill-opacity="1" fill-rule="nonzero"/><path fill="#fdb12d" d="M 304.859375 954.203125 C 318.582031 987.9375 338.0625 1009.832031 362.542969 1035.710938 C 339.734375 1036.75 319.96875 1058.570312 321.203125 1081.375 C 327.9375 1081.097656 334.660156 1080.832031 341.371094 1080.554688 C 326.183594 1105.523438 311.652344 1131.777344 307.246094 1160.679688 C 302.832031 1189.582031 310.394531 1221.933594 333.046875 1240.386719 C 345.382812 1250.433594 360.976562 1255.578125 376.507812 1259.027344 C 452.425781 1275.820312 535.78125 1254.496094 594.292969 1203.308594 C 575.566406 1220.929688 582.046875 1256.246094 604.441406 1268.875 C 626.835938 1281.496094 657.859375 1271.621094 671.9375 1250.113281 C 660.453125 1362.136719 778.921875 1425.410156 873.394531 1435.5625 C 905.257812 1438.976562 937.511719 1441.558594 969.261719 1437.234375 C 1037.554688 1427.9375 1095.339844 1403.554688 1149.621094 1362.96875 C 1153.21875 1360.292969 1156.980469 1357.511719 1161.398438 1356.761719 C 1168.15625 1355.609375 1174.648438 1359.324219 1180.703125 1362.542969 C 1226.332031 1386.773438 1283.820312 1387.1875 1329.800781 1363.648438 C 1342.566406 1357.121094 1354.964844 1348.273438 1361.179688 1335.34375 C 1367.394531 1322.425781 1365.386719 1304.746094 1353.589844 1296.59375 C 1394.089844 1290.8125 1431.179688 1264.679688 1450.230469 1228.472656 C 1469.28125 1192.246094 1469.847656 1146.898438 1451.671875 1110.21875 C 1462.476562 1132.019531 1740.136719 1003.09375 1633.394531 904.148438 C 1666.804688 879.328125 1697.328125 846.0625 1704.003906 804.980469 C 1713.785156 744.855469 1667.792969 686.863281 1612.058594 662.320312 C 1556.324219 637.753906 1493.117188 638.839844 1432.226562 640.441406 C 1447.613281 625.4375 1463.515625 609.554688 1470.019531 589.082031 C 1476.511719 568.609375 1469.972656 542.253906 1450.253906 533.730469 C 1441.371094 529.902344 1431.328125 530.167969 1421.675781 531 C 1389.292969 533.847656 1357.40625 542.660156 1328.140625 556.84375 C 1353.371094 512.925781 1349.4375 454.609375 1320.457031 413.089844 C 1291.457031 371.578125 1239.539062 347.945312 1188.980469 350.945312 C 1150.300781 353.242188 1088.121094 380.910156 1073.601562 421.761719 C 1082.691406 396.191406 1066.902344 364.300781 1040.746094 356.988281 C 1014.605469 349.6875 984.042969 369.804688 981.367188 396.828125 C 978.691406 364.613281 971.429688 331.984375 953.75 304.902344 C 919.429688 252.320312 850.546875 233.671875 794.699219 255.089844 C 729.207031 280.199219 670.472656 350.449219 676.933594 424.058594 C 675.339844 405.890625 645.554688 404.667969 635.253906 419.710938 C 624.957031 434.761719 628.496094 454.921875 632.441406 472.730469 C 624.957031 435.753906 610.519531 394.992188 575.96875 379.835938 C 538.617188 363.449219 492.292969 387.714844 474.890625 424.613281 C 457.488281 461.519531 463.96875 505.902344 480.921875 543.003906 C 465.582031 537.132812 447.640625 536.140625 433.144531 543.894531 C 418.660156 551.632812 409.132812 569.417969 413.976562 585.113281 C 418.820312 600.824219 440.085938 609.933594 453.347656 600.246094 C 306.015625 637.175781 252.273438 824.96875 304.859375 954.203125 " fill-opacity="1" fill-rule="nonzero"/><g clip-path="url(#2c7b2379df)"><path fill="#f5e855" d="M 795.726562 1452.378906 C 834.4375 1394.5 869.738281 1332.761719 899.214844 1272.601562 C 925.863281 1218.210938 884.210938 1165.628906 839.121094 1133.285156 C 752.882812 1071.453125 630.515625 1053.660156 539.457031 1108.144531 C 511.332031 1124.984375 485.210938 1147.980469 463.761719 1172.742188 C 451.847656 1186.480469 421.667969 1234.839844 403.011719 1234.726562 C 423.316406 1234.851562 434.828125 1259.546875 432.9375 1279.777344 C 428.082031 1332 374.480469 1386.53125 345.855469 1427.128906 C 313.695312 1472.78125 281.945312 1526.722656 243.554688 1567.171875 C 255.214844 1567.171875 293.222656 1514.867188 302.265625 1505.328125 C 325.097656 1481.28125 347.921875 1457.222656 370.765625 1433.183594 C 410.042969 1391.824219 451.78125 1351.203125 496.433594 1315.414062 C 502.253906 1322.75 496.996094 1333.40625 491.542969 1341.007812 C 463.96875 1379.425781 433.835938 1416.082031 405.699219 1454.210938 C 362.84375 1512.285156 319.992188 1570.355469 277.136719 1628.4375 C 288.980469 1628.4375 327.3125 1576.25 336.550781 1566.652344 C 359.648438 1542.628906 382.761719 1518.605469 405.859375 1494.566406 C 446.992188 1451.8125 487.390625 1407.789062 532.367188 1369 C 536.449219 1365.484375 541.765625 1361.757812 546.769531 1363.753906 C 558.867188 1368.5625 444.433594 1538.546875 432.84375 1554.460938 C 484.75 1504.695312 521.410156 1436.425781 587.097656 1402.308594 C 573.246094 1456.980469 547.554688 1507.785156 522.054688 1558.105469 C 496.984375 1607.539062 471.914062 1656.996094 446.84375 1706.441406 C 514.800781 1616.699219 588.25 1531.082031 666.644531 1450.289062 C 663.289062 1508.835938 639.40625 1564 615.882812 1617.703125 C 660.164062 1539.90625 708.21875 1458.28125 786.589844 1415.042969 C 775.808594 1453.335938 761.152344 1490.554688 742.941406 1525.929688 C 761.070312 1502.457031 778.714844 1477.785156 795.726562 1452.378906 " fill-opacity="1" fill-rule="nonzero"/></g><path fill="#fbad0a" d="M 547.691406 1565.777344 C 567.226562 1534.242188 583.175781 1500.519531 595.214844 1465.421875 C 604.429688 1438.539062 616.25 1400.84375 616.585938 1372.414062 C 581.378906 1377.433594 558.359375 1410.777344 528.871094 1430.660156 C 543.910156 1420.523438 567.632812 1373.71875 564.171875 1356.625 C 528.78125 1354.421875 488.011719 1388.597656 467.683594 1414.960938 C 491.371094 1384.238281 514.800781 1356.625 520.625 1317.238281 C 521.085938 1314.101562 521.339844 1310.710938 519.761719 1307.976562 C 516.058594 1301.574219 506.40625 1303.664062 499.707031 1306.800781 C 466.550781 1322.394531 447.269531 1343.246094 421.3125 1367.523438 C 435.644531 1344.640625 446.625 1320.640625 448.929688 1295.910156 C 450.511719 1278.96875 445.519531 1261.265625 435.773438 1248.613281 C 445.230469 1239.015625 454.859375 1226.511719 465.214844 1212.546875 C 469.171875 1207.21875 472.90625 1202.164062 475.203125 1199.523438 C 496.617188 1174.808594 521.203125 1153.804688 546.308594 1138.789062 C 578.921875 1119.273438 618.105469 1108.960938 659.632812 1108.960938 C 716.890625 1108.960938 777.238281 1128.683594 825.210938 1163.066406 C 844.4375 1176.847656 905.152344 1225.914062 879.320312 1278.644531 C 858.757812 1320.628906 835.441406 1363.039062 810.660156 1403.683594 L 814.246094 1390.9375 L 774.574219 1412.839844 C 732.296875 1436.148438 701.472656 1472.113281 667.625 1505.710938 C 679.238281 1477.785156 691.082031 1448.535156 688.742188 1418.375 C 634.5625 1459.910156 586.808594 1509.816406 547.691406 1565.777344 " fill-opacity="1" fill-rule="nonzero"/><path fill="#f5e855" d="M 590.382812 252.980469 C 601.453125 274.90625 627.355469 353.703125 660.820312 348.488281 C 673.3125 346.539062 682.976562 335.769531 687.300781 323.863281 C 691.636719 311.984375 691.601562 299.011719 691.507812 286.367188 C 713.351562 346.816406 733.140625 408.359375 743.160156 471.851562 C 748.15625 503.523438 750.578125 536.707031 740.1875 567.03125 C 734.074219 584.882812 723.800781 600.949219 713.628906 616.820312 C 658.054688 703.484375 601.9375 790.839844 529.5625 864.054688 C 524.5 869.164062 519.230469 874.308594 512.726562 877.421875 C 503.847656 881.621094 493.617188 881.597656 483.792969 881.402344 C 408.210938 879.878906 332.757812 872.789062 258.214844 860.203125 C 277.402344 846.652344 296.582031 833.101562 315.757812 819.546875 C 318.988281 817.265625 322.355469 814.785156 323.898438 811.152344 C 326.726562 804.484375 322.332031 797.089844 317.890625 791.359375 C 278.519531 740.589844 227.582031 702.042969 175.910156 664.410156 C 225.242188 693.898438 278.949219 724.453125 336.183594 719.226562 C 249.910156 599.667969 147.929688 491.449219 33.707031 398.234375 C 121.925781 477.089844 220.953125 543.871094 327.140625 596.105469 C 345.914062 605.320312 366.960938 614.328125 387.140625 608.816406 C 348.289062 522.222656 285.234375 449.179688 223.0625 377.472656 C 148.898438 291.941406 74.738281 206.429688 0.574219 120.894531 C 129.675781 244.304688 266.007812 371.960938 437.792969 420.816406 C 452.160156 424.898438 470.117188 427.390625 479.78125 416.007812 C 487.035156 407.472656 486.054688 394.855469 484.207031 383.804688 C 477.738281 345.039062 465.492188 307.234375 447.996094 272.03125 C 474.855469 306.011719 508.277344 334.765625 545.847656 356.285156 C 556.8125 362.558594 571.851562 367.796875 580.9375 359.007812 C 586.589844 353.550781 587.210938 344.855469 587.476562 336.988281 C 588.445312 308.996094 589.414062 280.984375 590.382812 252.980469 " fill-opacity="1" fill-rule="nonzero"/><g clip-path="url(#7711611884)"><path fill="#f5e855" d="M 1084.316406 386.179688 C 1116.777344 350.957031 1146.820312 313.496094 1174.140625 274.167969 C 1167.726562 292.804688 1151.6875 318.511719 1151.929688 338.476562 C 1152.710938 407.207031 1227.589844 311.027344 1237.992188 294.914062 C 1285.699219 220.960938 1333.433594 146.996094 1381.140625 73.042969 C 1351.664062 118.726562 1331.332031 179.117188 1307.023438 228.402344 C 1281.804688 279.519531 1263.074219 337.335938 1259.488281 394.714844 C 1312.847656 374.265625 1348.964844 325.226562 1382.027344 278.628906 C 1341.886719 368.695312 1301.257812 460.402344 1289.136719 558.253906 C 1287.648438 570.222656 1286.371094 582.863281 1279.324219 592.644531 C 1274.019531 600.027344 1265.992188 604.929688 1257.828125 608.917969 C 1200.765625 636.808594 1126.671875 624.59375 1081.570312 579.878906 C 1054.703125 553.246094 1039.261719 516.144531 1036.976562 478.566406 C 1035.949219 461.425781 1035.453125 433.320312 1045.070312 418.175781 C 1054.378906 403.503906 1071.640625 399.917969 1084.316406 386.179688 " fill-opacity="1" fill-rule="nonzero"/></g><path fill="#fbad0a" d="M 1131.449219 373.632812 C 1127.113281 387.785156 1142.011719 402.027344 1156.816406 402.421875 C 1171.625 402.8125 1184.957031 393.863281 1196.328125 384.394531 C 1216.09375 367.957031 1233.597656 348.789062 1248.164062 327.601562 C 1238.097656 352.25 1230.726562 377.992188 1226.207031 404.230469 C 1225.121094 410.644531 1224.476562 418.058594 1228.90625 422.8125 C 1232.746094 426.929688 1239.019531 427.449219 1244.636719 427.078125 C 1260.675781 426.007812 1276.300781 419.511719 1288.398438 408.9375 C 1274.941406 460.226562 1261.484375 511.53125 1248.046875 562.84375 C 1246.816406 567.558594 1245.394531 572.578125 1241.773438 575.828125 C 1238.015625 579.1875 1232.699219 579.96875 1227.707031 580.582031 C 1190.6875 584.976562 1151.5 586.222656 1117.976562 569.925781 C 1084.640625 553.707031 1056.871094 510.582031 1065.3125 472.511719 C 1074.226562 432.304688 1119.707031 411.855469 1131.449219 373.632812 " fill-opacity="1" fill-rule="nonzero"/><path fill="#fbad0a" d="M 385.550781 772.492188 C 374.226562 764.660156 361.496094 758.199219 353.078125 747.289062 C 370.71875 749.597656 393.933594 748.660156 399.550781 731.777344 C 403.496094 719.929688 395.539062 707.683594 387.777344 697.890625 C 371.148438 676.863281 353.492188 656.632812 334.914062 637.328125 C 352.523438 647.328125 372.335938 653.453125 392.515625 655.148438 C 400.277344 655.804688 408.441406 655.734375 415.371094 652.183594 C 431.957031 643.660156 433.398438 620.441406 429.441406 602.21875 C 422.636719 570.917969 406.886719 542.324219 389.726562 515.289062 C 362.625 472.558594 331.582031 432.5 300.605469 392.480469 C 363.628906 444.863281 437.824219 483.722656 516.761719 505.691406 C 524.996094 508 534.140625 510.03125 541.800781 506.222656 C 550.851562 501.714844 554.4375 490.722656 555.765625 480.6875 C 559.210938 454.667969 553.125 427.496094 538.917969 405.40625 C 553.503906 417.171875 568.09375 428.902344 582.679688 440.644531 C 588.125 445.027344 595.609375 449.605469 601.558594 445.9375 C 604.382812 444.195312 605.941406 441 607.234375 437.933594 C 616.828125 415.074219 620.066406 389.582031 616.503906 365.0625 C 626.054688 384.738281 640.019531 402.257812 657.0625 415.972656 C 660.71875 418.890625 664.695312 421.738281 669.308594 422.523438 C 684.554688 425.109375 693.332031 406.019531 696.640625 390.921875 C 734.476562 457.550781 730.40625 541.957031 701.621094 612.96875 C 672.839844 683.957031 622.015625 743.679688 568.371094 798.371094 C 544.96875 822.210938 519.117188 848.3125 484.875 850.988281 C 447.292969 853.917969 406.699219 852.292969 369.695312 844.320312 C 381.320312 846.824219 400.75 821.660156 403.851562 812.730469 C 410.425781 793.734375 402.097656 783.898438 385.550781 772.492188 " fill-opacity="1" fill-rule="nonzero"/><path fill="#f5e855" d="M 1265.035156 1515.523438 C 1296.773438 1545.925781 1327.449219 1577.425781 1356.945312 1609.984375 C 1333.929688 1576.824219 1310.921875 1543.65625 1287.902344 1510.496094 C 1280.835938 1500.300781 1273.453125 1487.625 1278.402344 1476.253906 C 1301.109375 1479.667969 1321.277344 1492.191406 1340.421875 1504.867188 C 1415.65625 1554.761719 1486.222656 1611.65625 1550.917969 1674.621094 C 1503.980469 1618.152344 1462.835938 1556.859375 1428.351562 1492.03125 C 1416.175781 1469.113281 1404.65625 1441.753906 1415.402344 1418.109375 C 1430.71875 1413.335938 1446.414062 1423.152344 1459.304688 1432.699219 C 1488.261719 1454.164062 1516.367188 1476.726562 1543.570312 1500.347656 C 1517.726562 1469.585938 1493.648438 1437.335938 1471.484375 1403.808594 C 1458.082031 1383.511719 1444.925781 1361.261719 1445.269531 1336.949219 C 1481.054688 1325.578125 1518.074219 1347.535156 1549.210938 1368.539062 C 1617.757812 1414.765625 1686.304688 1460.980469 1754.851562 1507.195312 C 1699.921875 1432.710938 1645.019531 1358.238281 1590.101562 1283.753906 C 1568.097656 1253.90625 1544.898438 1218.472656 1554.144531 1182.570312 C 1582.238281 1180.472656 1611.046875 1192.523438 1629.253906 1214.023438 C 1616.140625 1199.214844 1605.046875 1182.664062 1596.285156 1164.945312 C 1592.097656 1156.480469 1589.792969 1143.734375 1598.359375 1139.734375 C 1601.625 1138.1875 1605.453125 1138.695312 1608.980469 1139.445312 C 1629.046875 1143.65625 1646.933594 1154.691406 1664.347656 1165.523438 C 1700.199219 1187.839844 1736.054688 1210.160156 1771.90625 1232.476562 C 1712.492188 1175.949219 1659.6875 1112.480469 1614.917969 1043.773438 C 1630.59375 1031.457031 1653.101562 1043.300781 1669.203125 1055.066406 C 1703.785156 1080.335938 1739.476562 1106.863281 1760.003906 1144.496094 C 1706.011719 1063.023438 1652.019531 981.574219 1597.992188 900.085938 C 1581.972656 876.132812 1495.597656 905.714844 1473.765625 912.855469 C 1377.105469 944.480469 1258.785156 986.625 1181.230469 1054.683594 C 1136.453125 1093.96875 1087.796875 1128.476562 1042.199219 1166.792969 C 997.167969 1204.65625 955.605469 1245.902344 909.144531 1282.070312 C 921.449219 1305.21875 944.234375 1320.5 965.144531 1336.3125 C 1018.617188 1376.695312 1065.101562 1426.324219 1101.855469 1482.355469 C 1090.230469 1459.195312 1080.796875 1434.914062 1073.71875 1409.957031 C 1071.515625 1402.148438 1069.945312 1392.585938 1075.734375 1386.890625 C 1083.09375 1379.625 1095.421875 1384.699219 1104.175781 1390.222656 C 1161.558594 1426.460938 1216.164062 1468.722656 1265.035156 1515.523438 " fill-opacity="1" fill-rule="nonzero"/><path fill="#fbad0a" d="M 1421.179688 1531.039062 C 1399.304688 1514.71875 1376.976562 1499.007812 1354.28125 1483.96875 C 1334.527344 1470.855469 1314.230469 1461.707031 1293.164062 1451.167969 C 1282.5625 1445.847656 1269.730469 1442.191406 1259.109375 1447.453125 C 1255.246094 1449.367188 1251.855469 1452.5625 1250.621094 1456.691406 C 1247.703125 1466.53125 1257.804688 1476.816406 1254.761719 1486.621094 C 1233.5625 1466.5625 1224.003906 1445.121094 1199.730469 1426.390625 C 1173.261719 1405.988281 1145.828125 1386.84375 1117.574219 1369.011719 C 1108.292969 1363.152344 1099.25 1359.625 1090.703125 1358.550781 C 1078.132812 1356.960938 1066.566406 1360.671875 1058.101562 1369.023438 C 1055.152344 1371.941406 1052.753906 1375.195312 1050.941406 1378.746094 C 1029.101562 1356.199219 1005.503906 1335.332031 980.273438 1316.28125 C 977.964844 1314.539062 975.625 1312.796875 973.296875 1311.054688 C 962.445312 1302.957031 951.949219 1295.160156 943.589844 1286.59375 C 964.878906 1269.027344 985.277344 1250.675781 1005.160156 1232.789062 C 1022.457031 1217.242188 1040.34375 1201.152344 1058.355469 1186.007812 C 1078.191406 1169.328125 1099.144531 1152.976562 1119.417969 1137.164062 C 1145.414062 1116.886719 1172.292969 1095.917969 1197.78125 1073.554688 C 1268.035156 1011.90625 1375.6875 971.355469 1481.574219 936.707031 L 1484.332031 935.808594 C 1529.765625 920.847656 1560.9375 914.273438 1576.957031 916.316406 C 1577.742188 916.417969 1578.351562 916.511719 1578.847656 916.625 C 1587.910156 918.542969 1607.828125 960.199219 1612.855469 967.917969 C 1626.601562 989.058594 1642.851562 1010.316406 1654.980469 1032.207031 C 1647.761719 1026.023438 1640.140625 1019.644531 1630.878906 1017.535156 C 1621.632812 1015.425781 1610.296875 1019.160156 1607.078125 1028.101562 C 1605.902344 1031.386719 1605.914062 1034.984375 1606.085938 1038.480469 C 1607.746094 1074.074219 1622.808594 1108.882812 1647.625 1134.476562 C 1632.992188 1124.164062 1616.683594 1113.355469 1598.867188 1114.996094 C 1593.148438 1115.5 1587.3125 1117.496094 1583.539062 1121.824219 C 1571.949219 1135.144531 1592.085938 1152.433594 1590.875 1166.515625 C 1574.558594 1160.703125 1555.539062 1155.109375 1540.746094 1164.140625 C 1495.226562 1191.9375 1549.476562 1270.953125 1569.898438 1298.644531 C 1569.898438 1298.65625 1648.464844 1405.203125 1648.464844 1405.203125 L 1563.234375 1347.734375 C 1533.261719 1327.515625 1497.707031 1308.785156 1461.371094 1304.527344 C 1451.53125 1303.375 1440.820312 1305.796875 1433.945312 1312.933594 C 1425.078125 1322.105469 1424.535156 1336.3125 1425.113281 1349.046875 C 1425.910156 1366.625 1428.089844 1384.996094 1438.0625 1399.496094 C 1426.898438 1393.960938 1414.273438 1391.363281 1401.828125 1392.035156 C 1398.40625 1392.207031 1394.898438 1392.667969 1391.898438 1394.316406 C 1384.207031 1398.574219 1382.570312 1408.792969 1382.433594 1417.570312 C 1381.867188 1449.21875 1391.484375 1476.136719 1406.199219 1503.804688 C 1411.066406 1512.941406 1416.058594 1522.03125 1421.179688 1531.039062 " fill-opacity="1" fill-rule="nonzero"/><path fill="#fb8300" d="M 435.726562 767.53125 C 426.363281 761.070312 415.84375 755.707031 408.890625 746.710938 C 423.46875 748.617188 442.65625 747.84375 447.304688 733.886719 C 450.558594 724.09375 443.972656 713.980469 437.570312 705.882812 C 423.824219 688.503906 409.238281 671.789062 393.875 655.828125 C 408.429688 664.085938 424.792969 669.160156 441.480469 670.566406 C 447.894531 671.121094 454.652344 671.050781 460.371094 668.109375 C 474.070312 661.050781 475.269531 641.871094 471.996094 626.820312 C 466.378906 600.949219 453.347656 577.328125 439.175781 554.964844 C 416.78125 519.671875 391.132812 486.535156 365.519531 453.492188 C 417.609375 496.777344 478.925781 528.886719 544.164062 547.066406 C 550.96875 548.945312 558.53125 550.628906 564.851562 547.492188 C 572.335938 543.753906 575.300781 534.664062 576.394531 526.382812 C 579.242188 504.875 574.214844 482.417969 562.464844 464.171875 C 574.527344 473.882812 586.589844 483.582031 598.640625 493.292969 C 603.136719 496.917969 609.320312 500.699219 614.242188 497.664062 C 616.585938 496.210938 617.863281 493.582031 618.925781 491.046875 C 626.859375 472.164062 629.546875 451.09375 626.582031 430.828125 C 634.484375 447.089844 646.027344 461.566406 660.105469 472.878906 C 663.128906 475.324219 666.414062 477.667969 670.242188 478.3125 C 682.835938 480.457031 690.078125 464.691406 692.824219 452.1875 C 724.085938 507.25 720.730469 577.015625 696.941406 635.6875 C 673.148438 694.371094 631.148438 743.726562 586.808594 788.914062 C 567.46875 808.625 546.113281 830.191406 517.8125 832.40625 C 486.757812 834.828125 453.210938 833.492188 422.625 826.90625 C 432.234375 828.972656 448.285156 808.175781 450.84375 800.78125 C 456.289062 785.085938 449.390625 776.964844 435.726562 767.53125 " fill-opacity="1" fill-rule="nonzero"/><path fill="#e93405" d="M 1538.058594 541.449219 C 1464.804688 461.289062 1342.785156 427.644531 1240.574219 464.289062 C 1214.8125 473.527344 1190.089844 487.136719 1171.671875 507.390625 C 1180.089844 438.683594 1057.929688 430.734375 1064.792969 488.035156 C 1058.714844 437.296875 1032.628906 389.226562 993.375 356.480469 C 941.988281 313.613281 877.28125 303.796875 813.082031 314.511719 C 758.972656 323.53125 706.914062 348.199219 668.582031 387.449219 C 630.25 426.699219 606.496094 480.882812 607.75 535.761719 C 590.429688 523.730469 564.738281 525.867188 549.617188 540.558594 C 534.523438 555.253906 531.6875 580.882812 543.207031 598.527344 C 536.484375 588.25 509.164062 627.9375 506.382812 632.195312 C 494 651.15625 487.484375 672.378906 483.296875 695.03125 C 473.761719 746.527344 479.664062 800.96875 501.035156 848.832031 C 468.203125 834.171875 430.042969 845.808594 396.75 859.375 C 370.234375 870.179688 343.816406 882.40625 322.078125 901.042969 C 300.351562 919.683594 283.539062 945.632812 281.394531 974.167969 C 279.257812 1002.714844 294.285156 1033.300781 320.730469 1044.269531 C 298.195312 1078.824219 281.265625 1120.207031 289.164062 1160.679688 C 300.707031 1219.90625 363.363281 1258 423.59375 1261.679688 C 483.816406 1265.347656 542.167969 1242.636719 598.203125 1220.214844 C 589.070312 1239.453125 579.726562 1259.671875 580.730469 1280.929688 C 581.722656 1302.199219 596.855469 1324.421875 618.105469 1325.578125 C 627.667969 1326.082031 636.925781 1322.394531 645.578125 1318.296875 C 674.71875 1304.527344 701.3125 1285.40625 723.625 1262.152344 C 715.265625 1311.621094 738.941406 1364.46875 780.144531 1393.082031 C 821.335938 1421.722656 877.695312 1425.839844 923.652344 1405.6875 C 973.167969 1383.972656 1018.203125 1350.835938 1042.925781 1301.425781 C 1091.074219 1336.730469 1149.691406 1359.394531 1209.382812 1358.527344 C 1269.070312 1357.640625 1329.339844 1331.503906 1365.664062 1284.125 C 1393.492188 1247.828125 1405.910156 1202.175781 1414.582031 1157.277344 C 1432.089844 1171.234375 1453.089844 1183.273438 1475.4375 1181.761719 C 1497.835938 1180.230469 1517.644531 1164.773438 1528.984375 1145.375 C 1540.308594 1125.972656 1544.203125 1103.089844 1545.242188 1080.660156 C 1547.144531 1039.679688 1540.078125 998.296875 1524.667969 960.28125 C 1522.558594 955.078125 1520.253906 949.40625 1521.867188 944.019531 C 1523.066406 939.960938 1526.285156 936.890625 1529.269531 933.894531 C 1552.738281 910.28125 1566.867188 878.414062 1585.488281 851.359375 C 1606.339844 821.082031 1615.425781 782.675781 1616.695312 746.308594 C 1619.277344 671.582031 1588.140625 596.253906 1538.058594 541.449219 " fill-opacity="1" fill-rule="nonzero"/><path fill="#fdae31" d="M 1491.007812 567.238281 C 1423.613281 493.480469 1311.324219 462.523438 1217.28125 496.246094 C 1193.582031 504.746094 1170.828125 517.273438 1153.890625 535.910156 C 1161.636719 472.695312 1049.234375 465.371094 1055.554688 518.09375 C 1049.960938 471.414062 1025.941406 427.171875 989.84375 397.046875 C 942.539062 357.589844 883 348.582031 823.933594 358.429688 C 774.148438 366.734375 726.265625 389.421875 690.988281 425.546875 C 655.703125 461.65625 633.859375 511.519531 635 561.988281 C 619.074219 550.941406 595.410156 552.902344 581.527344 566.417969 C 567.632812 579.9375 565.011719 603.546875 575.613281 619.761719 C 569.441406 610.292969 544.289062 646.832031 541.742188 650.742188 C 530.335938 668.179688 524.351562 687.71875 520.488281 708.558594 C 511.722656 755.941406 517.15625 806.03125 536.816406 850.089844 C 506.613281 836.59375 471.5 847.285156 440.859375 859.765625 C 416.46875 869.71875 392.160156 880.964844 372.148438 898.113281 C 352.152344 915.265625 336.699219 939.140625 334.730469 965.402344 C 332.757812 991.675781 346.582031 1019.808594 370.917969 1029.898438 C 350.183594 1061.6875 334.601562 1099.769531 341.867188 1137.023438 C 352.5 1191.519531 410.136719 1226.558594 465.558594 1229.9375 C 520.972656 1233.320312 574.664062 1212.40625 626.214844 1191.796875 C 617.820312 1209.488281 609.226562 1228.09375 610.148438 1247.667969 C 611.0625 1267.226562 624.980469 1287.675781 644.527344 1288.726562 C 653.335938 1289.210938 661.847656 1285.796875 669.816406 1282.035156 C 696.617188 1269.371094 721.089844 1251.773438 741.640625 1230.390625 C 733.9375 1275.902344 755.71875 1324.527344 793.636719 1350.859375 C 831.554688 1377.199219 883.402344 1380.996094 925.667969 1362.460938 C 971.230469 1342.472656 1012.703125 1311.976562 1035.429688 1266.511719 C 1079.714844 1299.015625 1133.660156 1319.855469 1188.578125 1319.046875 C 1243.503906 1318.242188 1298.964844 1294.191406 1332.382812 1250.597656 C 1357.996094 1217.207031 1369.425781 1175.199219 1377.382812 1133.875 C 1393.492188 1146.722656 1412.832031 1157.820312 1433.382812 1156.398438 C 1454 1155.003906 1472.234375 1140.773438 1482.65625 1122.929688 C 1493.070312 1105.074219 1496.667969 1084.027344 1497.625 1063.382812 C 1499.378906 1025.675781 1492.863281 987.605469 1478.691406 952.625 C 1476.742188 947.835938 1474.632812 942.613281 1476.109375 937.652344 C 1477.226562 933.925781 1480.167969 931.101562 1482.910156 928.332031 C 1504.523438 906.617188 1517.507812 877.296875 1534.65625 852.40625 C 1553.835938 824.554688 1562.195312 789.203125 1563.359375 755.730469 C 1565.734375 686.980469 1537.089844 617.664062 1491.007812 567.238281 " fill-opacity="1" fill-rule="nonzero"/><path fill="#e93405" d="M 1022.734375 556.84375 C 1046.976562 598.574219 1062.691406 659.65625 1033.230469 702.804688 C 1006.199219 742.433594 949.460938 758.140625 904.125 760.632812 C 884.902344 761.695312 865.007812 760.566406 847.527344 752.492188 C 724.789062 695.894531 713.257812 514.007812 858.308594 477.183594 C 880.21875 471.601562 903.710938 471.378906 925.277344 478.207031 C 968.070312 491.75 1001.609375 520.492188 1022.734375 556.84375 " fill-opacity="1" fill-rule="nonzero"/><path fill="#f67316" d="M 1012.125 586.289062 C 1032.6875 621.710938 1046.027344 673.554688 1021.027344 710.175781 C 998.078125 743.792969 949.933594 757.140625 911.449219 759.25 C 895.144531 760.136719 878.25 759.179688 863.417969 752.339844 C 759.261719 704.304688 749.46875 549.949219 872.574219 518.679688 C 891.175781 513.953125 911.113281 513.765625 929.40625 519.558594 C 965.71875 531.042969 994.179688 555.4375 1012.125 586.289062 " fill-opacity="1" fill-rule="nonzero"/><path fill="#fdae31" d="M 896.929688 609.382812 C 927.722656 589.230469 962.445312 575.265625 998.238281 566.324219 C 980.792969 545.035156 957.449219 528.425781 929.40625 519.558594 C 911.113281 513.765625 891.175781 513.953125 872.574219 518.679688 C 778.898438 542.472656 762.1875 637.546875 805.445312 702.792969 C 828.140625 665.332031 860.660156 633.09375 896.929688 609.382812 " fill-opacity="1" fill-rule="nonzero"/><path fill="#e93405" d="M 1022.433594 830.550781 C 1009.09375 791.300781 991.449219 752.710938 963.679688 721.914062 C 929.035156 683.507812 878.558594 659.054688 826.863281 658.664062 C 775.140625 658.285156 723.199219 682.917969 693.089844 724.972656 C 643.730469 688.523438 581.445312 668.605469 520.371094 674.386719 C 386.589844 687.082031 323.738281 839.683594 382.691406 954.6875 C 360.5625 1052.378906 356.640625 1147.542969 435.898438 1221.867188 C 482.269531 1265.347656 542.15625 1280.800781 603.738281 1277.386719 C 605.617188 1277.296875 607.625 1277.214844 609.238281 1278.183594 C 611.0625 1279.269531 611.949219 1281.378906 612.722656 1283.363281 C 628.023438 1322.484375 650.351562 1362.21875 682.847656 1389.796875 C 685.363281 1386.070312 688.105469 1382.472656 691.117188 1379.011719 C 722.933594 1342.414062 779.984375 1328.042969 826.308594 1337.433594 C 856.777344 1343.613281 882.378906 1362.265625 902.210938 1385.78125 C 903.722656 1384.835938 905.222656 1383.867188 906.664062 1382.886719 C 928.65625 1368.148438 948.203125 1349.152344 963.851562 1326.234375 C 1063.59375 1180.273438 1079.011719 997.328125 1022.433594 830.550781 " fill-opacity="1" fill-rule="nonzero"/><path fill="#f67316" d="M 974.34375 804.242188 C 966.585938 781.324219 957.890625 758.316406 943.40625 738.925781 C 915.21875 701.246094 865.054688 681.375 818.71875 689.550781 C 772.382812 697.742188 732.042969 733.585938 718.472656 778.636719 C 702.648438 758.246094 677.175781 747.035156 651.574219 743.726562 C 625.984375 740.414062 600.023438 744.1875 574.675781 749.089844 C 590.914062 733.761719 612.757812 724.535156 635.058594 723.585938 C 565.175781 711.476562 484.933594 713.554688 434.160156 763.078125 C 444.421875 739.378906 462.214844 719.019531 484.335938 705.710938 C 433.003906 717.867188 392.710938 766.722656 390.53125 819.445312 C 405.085938 805.890625 421.957031 794.84375 440.191406 786.941406 C 403.089844 819.972656 384.085938 872.210938 391.316406 921.367188 C 416.019531 882.40625 461.742188 857.710938 507.871094 858.449219 C 454.753906 898.898438 421.855469 964.664062 421.324219 1031.433594 C 409.847656 984.15625 421.347656 931.875 451.582031 893.765625 C 401.246094 937.15625 383.222656 1010.222656 394.636719 1075.6875 C 401.570312 1115.386719 418.84375 1154.152344 448.320312 1181.636719 C 477.785156 1209.121094 520.328125 1223.882812 559.582031 1214.839844 C 536.757812 1230.007812 505.058594 1230.480469 481.785156 1216.007812 C 526.300781 1254.332031 598.203125 1255.902344 644.367188 1219.570312 C 635.324219 1266.695312 638.933594 1299.300781 662.378906 1341.019531 C 666.359375 1323.464844 685.167969 1313.71875 702.601562 1309.1875 C 740.867188 1299.234375 781.550781 1303.097656 819.863281 1312.820312 C 842.28125 1318.519531 866.441406 1328.089844 876.378906 1348.976562 C 870.949219 1337.535156 911.335938 1306.546875 919.105469 1298.773438 C 938.492188 1279.382812 953.910156 1253.445312 966.871094 1229.488281 C 992.691406 1181.761719 1009.046875 1128.71875 1014.15625 1074.683594 C 1022.792969 983.28125 1003.796875 891.183594 974.34375 804.242188 " fill-opacity="1" fill-rule="nonzero"/><path fill="#fdae31" d="M 548.546875 819.710938 C 599.042969 770.125 688.453125 767.886719 741.363281 814.875 C 752.109375 768.359375 803.058594 735.167969 849.949219 744.128906 C 809.988281 834.460938 824.429688 946.464844 886 1023.707031 C 907.4375 1050.601562 934.515625 1074.269531 946.945312 1106.34375 C 954.671875 1126.25 956.136719 1148.140625 954.28125 1169.421875 C 947.554688 1229.972656 918.703125 1261.609375 880.347656 1304.203125 C 879 1305.703125 877.40625 1307.320312 875.386719 1307.308594 C 873.683594 1307.308594 872.242188 1306.109375 870.9375 1304.988281 C 824.925781 1265.738281 756.710938 1250.132812 701.667969 1275.21875 C 700.191406 1275.902344 698.578125 1276.605469 697.011719 1276.210938 C 694.796875 1275.648438 693.722656 1273.191406 693.007812 1271.011719 C 684.992188 1246.664062 687.117188 1222.269531 681.535156 1198.890625 C 685.246094 1214.449219 692.558594 1240.492188 709.742188 1245.695312 C 702.464844 1243.480469 718.5625 1160.265625 720.605469 1149.25 C 716.453125 1171.554688 633.167969 1192.039062 613.585938 1194.957031 C 572.867188 1201 529.332031 1188.027344 498.449219 1160.839844 C 455.539062 1123.066406 437.054688 1061.457031 446.3125 1005.042969 C 455.585938 948.621094 490.503906 898.082031 536.597656 864.253906 C 514.433594 891.011719 500.316406 924.355469 496.558594 958.910156 C 525.480469 900.121094 578.03125 853.386719 639.789062 831.554688 C 625.511719 818.003906 565.199219 803.355469 548.546875 819.710938 " fill-opacity="1" fill-rule="nonzero"/><path fill="#e93405" d="M 1435.976562 1235.058594 C 1480.535156 1247.734375 1531.808594 1232.269531 1561.953125 1197.066406 C 1586.585938 1168.316406 1594.230469 1119.675781 1565.621094 1094.878906 C 1579.148438 1106.597656 1619.164062 1038.097656 1623.1875 1030.511719 C 1693.613281 898.265625 1602.535156 725.019531 1448.5 725.019531 C 1424.570312 725.019531 1401.644531 729.261719 1380.425781 737.046875 C 1380.425781 736.953125 1380.425781 736.863281 1380.425781 736.769531 C 1380.425781 659.414062 1317.738281 596.707031 1240.402344 596.707031 C 1196.328125 596.707031 1157.050781 617.0625 1131.367188 648.859375 C 1105.824219 621.570312 1069.472656 604.523438 1029.15625 604.523438 C 969.0625 604.523438 917.828125 642.378906 897.945312 695.550781 C 815.953125 719.746094 756.113281 795.59375 756.113281 885.429688 C 756.113281 896.316406 757 906.996094 758.695312 917.410156 C 743.242188 939.925781 734.210938 967.167969 734.210938 996.542969 C 734.210938 1062.171875 779.335938 1117.230469 840.25 1132.445312 C 838.441406 1143.207031 837.484375 1154.265625 837.484375 1165.558594 C 837.484375 1274.886719 926.09375 1363.523438 1035.40625 1363.523438 C 1060.59375 1363.523438 1084.671875 1358.804688 1106.828125 1350.222656 C 1104.761719 1351.019531 1135.449219 1386.152344 1138.691406 1388.875 C 1153.496094 1401.351562 1170.898438 1410.671875 1189.511719 1416.035156 C 1226.160156 1426.589844 1264.183594 1418.539062 1298.488281 1403.566406 C 1367.371094 1373.523438 1422.046875 1309.488281 1435.976562 1235.058594 " fill-opacity="1" fill-rule="nonzero"/><path fill="#f67316" d="M 1418.792969 746.839844 C 1399.140625 746.839844 1379.917969 750.230469 1361.664062 756.910156 L 1331.621094 767.921875 L 1331.621094 735.605469 C 1331.597656 674.417969 1281.804688 624.628906 1220.625 624.628906 C 1186.894531 624.628906 1155.398438 639.714844 1134.179688 666 L 1118.046875 685.988281 L 1100.472656 667.234375 C 1079.253906 644.570312 1050.46875 632.089844 1019.460938 632.089844 C 973.378906 632.089844 931.5625 661.074219 915.441406 704.246094 L 911.53125 714.695312 L 900.828125 717.855469 C 867.15625 727.796875 836.847656 748.765625 815.492188 776.894531 C 793.441406 805.949219 781.78125 840.65625 781.78125 877.238281 C 781.78125 886.199219 782.519531 895.230469 783.949219 904.101562 L 785.390625 912.957031 L 780.316406 920.339844 C 767.632812 938.839844 760.921875 960.523438 760.921875 983.050781 C 760.921875 1034.132812 795.484375 1078.433594 844.96875 1090.773438 L 865.03125 1095.78125 L 861.585938 1116.183594 C 860.050781 1125.363281 859.265625 1134.71875 859.265625 1144.011719 C 859.265625 1235.636719 933.796875 1310.167969 1025.410156 1310.167969 C 1046.074219 1310.167969 1066.246094 1306.429688 1085.34375 1299.027344 L 1103.480469 1292.011719 L 1112.9375 1308.992188 C 1137.722656 1353.441406 1188.484375 1373.9375 1237.566406 1363.671875 C 1266.386719 1357.640625 1292.746094 1342.84375 1316.089844 1324.882812 C 1359.367188 1291.609375 1393.6875 1246.800781 1414.550781 1196.339844 C 1415.839844 1193.226562 1417.292969 1189.824219 1420.292969 1188.234375 C 1423.371094 1186.59375 1427.132812 1187.378906 1430.578125 1188.027344 C 1457.75 1193.167969 1487.027344 1185.972656 1508.699219 1168.800781 C 1530.390625 1151.625 1544.089844 1124.773438 1545.300781 1097.140625 C 1537.054688 1112.871094 1519.710938 1123.390625 1501.941406 1123.472656 C 1544.65625 1088.628906 1575.054688 1039 1586.699219 985.125 C 1599.292969 926.84375 1566.070312 878.09375 1503.519531 893.191406 C 1527.644531 887.367188 1551.171875 865.359375 1577.40625 878.023438 C 1574.878906 860.699219 1572.296875 843.167969 1565.632812 826.988281 C 1554.882812 800.851562 1532.417969 786.261719 1509.574219 771.683594 C 1483.246094 754.902344 1449.78125 746.839844 1418.792969 746.839844 " fill-opacity="1" fill-rule="nonzero"/><path fill="#fdae31" d="M 1257.007812 684.5 C 1286.242188 692.941406 1311.925781 718.445312 1312.582031 748.800781 C 1284.535156 761.707031 1268.785156 812.570312 1250.527344 836.25 C 1271.632812 808.890625 1304.683594 791.070312 1339.117188 788.488281 C 1319.570312 798.683594 1303.21875 814.945312 1292.933594 834.472656 C 1301.394531 818.40625 1348.226562 803.816406 1364.175781 799.523438 C 1395.441406 791.105469 1429.277344 791.925781 1459.929688 802.511719 C 1419.910156 806.953125 1382.5 830.863281 1361.652344 865.3125 C 1374.648438 843.847656 1457.460938 818.636719 1477.421875 837.332031 C 1437.984375 849.363281 1400.46875 866.859375 1366.308594 890.085938 C 1392.800781 884.125 1419.679688 878.105469 1446.78125 879.429688 C 1473.90625 880.757812 1501.753906 890.375 1519.445312 910.964844 C 1537.804688 932.382812 1542.730469 962.980469 1537.964844 990.789062 C 1533.191406 1018.597656 1519.804688 1044.15625 1504.984375 1068.144531 C 1493.476562 1086.75 1472.09375 1114.996094 1447.484375 1103.207031 C 1447.171875 1124.441406 1469.984375 1142.675781 1490.613281 1137.679688 C 1476.074219 1150.773438 1453.367188 1153.863281 1435.859375 1145.109375 C 1418.355469 1136.355469 1407.191406 1116.355469 1408.910156 1096.851562 C 1403.269531 1164.394531 1391.714844 1236.699219 1344.492188 1285.289062 C 1374.394531 1243.273438 1391.96875 1192.582031 1394.496094 1141.070312 C 1379.398438 1181.9375 1358.167969 1220.539062 1331.761719 1255.175781 C 1310.265625 1283.386719 1284.226562 1309.730469 1251.140625 1322.460938 C 1218.042969 1335.195312 1176.722656 1331.457031 1152.148438 1305.875 C 1134.363281 1287.355469 1127.839844 1260.953125 1123.191406 1235.695312 C 1113.226562 1181.519531 1109.535156 1122.363281 1136.660156 1074.417969 C 1098.753906 1110.773438 1077.777344 1152.257812 1083.21875 1204.851562 C 1066.902344 1210.929688 1048.660156 1211.726562 1031.867188 1207.078125 C 1045.417969 1216.8125 1061.089844 1223.574219 1077.476562 1226.734375 C 1041.507812 1249.824219 991.425781 1248.382812 956.851562 1223.238281 C 922.277344 1198.117188 905.429688 1150.910156 916.292969 1109.574219 C 944.085938 1115.132812 973.515625 1112.179688 999.671875 1101.222656 C 942.769531 1076.792969 902.835938 1017.164062 901.925781 955.242188 C 891.128906 991.492188 891.027344 1030.855469 901.625 1067.152344 C 864.316406 1065.421875 833.410156 1042.539062 821.925781 1007.386719 C 810.175781 971.398438 819.054688 929.441406 844.378906 901.296875 C 837.5625 919.820312 838.9375 941.183594 848.046875 958.703125 C 849.082031 912.925781 870.84375 868.023438 906.144531 838.867188 C 877.464844 847.414062 851.898438 865.992188 834.863281 890.582031 C 829.042969 862.925781 839.121094 833.816406 855.667969 810.875 C 872.183594 787.910156 894.660156 770.066406 916.835938 752.515625 C 904.265625 768.371094 895.476562 787.195312 891.359375 807 C 931.480469 760.496094 994.976562 735.257812 1056.0625 741.5 C 1029.066406 726.65625 994.851562 725.777344 967.136719 739.226562 C 972.894531 708.984375 999.289062 683.832031 1029.78125 679.550781 C 1060.25 675.273438 1092.5625 692.179688 1106.410156 719.675781 C 1092.792969 715.917969 1077.039062 722.089844 1069.589844 734.09375 C 1109.777344 722.078125 1156.289062 734.660156 1184.945312 765.292969 C 1184.691406 740.324219 1164.117188 715.398438 1139.417969 710.878906 C 1145.054688 703.542969 1153.773438 699.355469 1162.332031 695.824219 C 1191.324219 683.832031 1223.589844 676.171875 1254.035156 683.703125 C 1255.039062 683.957031 1256.027344 684.222656 1257.007812 684.5 " fill-opacity="1" fill-rule="nonzero"/><path fill="#fdd340" d="M 1075.667969 811.578125 C 1041.691406 806.6875 1007.222656 809.753906 977.378906 828.234375 C 988.886719 810.183594 1005.839844 795.636719 1025.433594 787.023438 C 992.84375 790.484375 962.25 803.757812 936.75 824.160156 C 914.089844 842.304688 906.871094 865.140625 890.183594 887.214844 C 901.441406 872.335938 925.324219 844.875 946.230469 851.554688 C 923.558594 905.140625 895.234375 973.996094 948.929688 1019.726562 C 943 993.140625 941.699219 965.136719 948.503906 938.75 C 955.304688 912.371094 970.679688 887.710938 993.339844 872.589844 C 976.6875 905.277344 981.957031 947.824219 1006.070312 975.449219 C 987.722656 954.433594 1021.605469 896.996094 1033.34375 880.078125 C 1050.675781 854.066406 1073.972656 833.34375 1099.816406 816.351562 C 1091.847656 814.378906 1083.761719 812.753906 1075.667969 811.578125 " fill-opacity="1" fill-rule="nonzero"/><path fill="#fdd340" d="M 991.828125 1189.132812 C 991.734375 1167.886719 991.21875 1166.214844 977.734375 1157.136719 C 974.21875 1154.761719 942.480469 1151.382812 944.375 1142.15625 C 940.210938 1162.480469 947.84375 1181.199219 961.578125 1195.855469 C 972.085938 1207.078125 991.609375 1208.738281 1000.441406 1217.355469 C 993.199219 1210.285156 991.863281 1199.238281 991.828125 1189.132812 " fill-opacity="1" fill-rule="nonzero"/><path fill="#fdd340" d="M 1276.832031 726.726562 C 1273.546875 715.214844 1261.484375 706.332031 1245.152344 703.472656 C 1230.023438 700.808594 1214.132812 704.246094 1200.492188 710.726562 C 1199.003906 711.429688 1199.613281 713.761719 1201.285156 713.519531 C 1208.5625 712.445312 1215.574219 712.492188 1222.515625 713.402344 C 1240.691406 724.1875 1252.546875 741.511719 1265.289062 757.832031 C 1276.394531 746.941406 1279.4375 735.976562 1276.832031 726.726562 " fill-opacity="1" fill-rule="nonzero"/><path fill="#fdd340" d="M 485.753906 1034.121094 C 480.957031 1025.632812 479.273438 1015.792969 477.667969 1006.175781 C 464.765625 1049 479.640625 1098.871094 513.902344 1127.625 C 548.164062 1156.378906 599.839844 1162.375 639.777344 1142.25 C 545.535156 1130.785156 526.992188 1012.425781 551.011719 941.054688 C 554.335938 931.183594 558.128906 920.652344 566.570312 914.539062 C 542.675781 928.945312 524.316406 951.886719 514.375 977.859375 C 512.359375 983.164062 500.457031 1048.90625 508.183594 1048.929688 C 498.449219 1048.90625 490.664062 1042.816406 485.753906 1034.121094 " fill-opacity="1" fill-rule="nonzero"/><path fill="#fdd340" d="M 703.121094 834.402344 C 695.140625 831.117188 684.867188 835.015625 676.980469 837.460938 C 667.234375 840.46875 657.960938 844.496094 649.09375 849.523438 C 632.867188 858.738281 618.636719 871.230469 605.941406 884.828125 C 604.867188 885.992188 606.828125 887.839844 607.96875 886.753906 C 621.417969 873.953125 637.160156 865.058594 654.527344 858.648438 C 662.691406 855.625 671.144531 853.261719 679.699219 851.601562 C 687.96875 849.996094 697.875 850.550781 704.945312 845.683594 C 709.234375 842.71875 707.410156 836.179688 703.121094 834.402344 " fill-opacity="1" fill-rule="nonzero"/><path fill="#fdd340" d="M 888.882812 559.660156 C 906.765625 554.929688 925.578125 552.253906 944.410156 551.898438 C 928.367188 543.097656 908.945312 540.953125 890.414062 541.042969 C 849.117188 541.273438 820.875 566.71875 812.929688 602.945312 C 832.375 580.984375 861.273438 566.925781 888.882812 559.660156 " fill-opacity="1" fill-rule="nonzero"/><path fill="#e93405" d="M 1422.703125 633.878906 C 1497.636719 607.464844 1583.597656 619.046875 1653.828125 656.265625 C 1662.59375 639.125 1674.054688 617.144531 1675.476562 613.902344 C 1681.667969 599.761719 1687.503906 585.125 1691.839844 570.144531 C 1695.621094 557.085938 1698.238281 543.742188 1698.929688 530.214844 C 1702.597656 459.304688 1659.203125 369.375 1580 364.476562 C 1552.910156 362.789062 1525.996094 371.742188 1502.4375 385.269531 C 1458.046875 410.738281 1422.96875 454.980469 1415.332031 505.449219 C 1415.148438 492.3125 1399.925781 480.261719 1387.195312 485.277344 C 1375.074219 490.066406 1370.3125 504.527344 1368.351562 517.386719 C 1361.882812 559.589844 1377.773438 605.863281 1392.972656 646.589844 C 1402.5 641.746094 1412.394531 637.511719 1422.703125 633.878906 " fill-opacity="1" fill-rule="nonzero"/><path fill="#f67316" d="M 1482.921875 587.214844 C 1539.464844 576.289062 1600.101562 585.898438 1651.222656 613.003906 C 1657.554688 600.671875 1665.8125 584.824219 1666.8125 582.496094 C 1671.277344 572.324219 1675.488281 561.792969 1678.601562 550.996094 C 1681.308594 541.585938 1683.203125 531.988281 1683.707031 522.234375 C 1688.96875 420.585938 1576.308594 350.945312 1494.28125 419.917969 C 1461.910156 447.160156 1443.183594 487.875 1434.914062 529.394531 C 1432.550781 514.042969 1409.84375 506.949219 1399.152344 518.195312 C 1392.269531 525.449219 1391.472656 536.417969 1391.714844 546.394531 C 1392.328125 570.742188 1396.894531 594.988281 1405.230469 617.871094 C 1429.125 602.609375 1455.546875 592.507812 1482.921875 587.214844 " fill-opacity="1" fill-rule="nonzero"/><path fill="#fdae31" d="M 1534.355469 423.160156 C 1548.460938 414.761719 1563.890625 409.941406 1579.378906 410.886719 C 1599.457031 412.132812 1617.5625 424.011719 1631.144531 438.820312 C 1664.84375 475.542969 1671.171875 530.144531 1650.832031 575.171875 C 1657 532.683594 1632.136719 487.550781 1592.894531 470.089844 C 1553.671875 452.636719 1503.507812 464.367188 1476.074219 497.410156 C 1483.867188 470.113281 1506.539062 439.710938 1534.355469 423.160156 " fill-opacity="1" fill-rule="nonzero"/><path fill="#e93405" d="M 1301.085938 1181.867188 C 1300.691406 1182.511719 1300.242188 1183.238281 1299.769531 1183.988281 C 1299.988281 1183.296875 1300.242188 1182.546875 1300.554688 1181.761719 C 1300.726562 1181.808594 1300.910156 1181.832031 1301.085938 1181.867188 Z M 1355.757812 1142.398438 C 1355.261719 1133.632812 1351.816406 1125.5 1343.476562 1119.136719 C 1323.214844 1103.667969 1297.730469 1113.875 1281.308594 1129.734375 C 1265.519531 1144.980469 1254.058594 1165.386719 1251.667969 1187.472656 C 1249.339844 1208.808594 1258.300781 1232.210938 1279.667969 1240.019531 C 1304.601562 1249.132812 1327.195312 1229.859375 1339.335938 1209.953125 C 1350.210938 1192.097656 1365.398438 1163.449219 1355.757812 1142.398438 " fill-opacity="1" fill-rule="nonzero"/><path fill="#e93405" d="M 1486.960938 1077.246094 C 1485.738281 1076.230469 1484.398438 1075.320312 1483.015625 1074.648438 C 1474.574219 1070.542969 1464.390625 1071.652344 1456.042969 1075.492188 C 1455.074219 1075.835938 1454.128906 1076.195312 1453.226562 1076.574219 C 1449.628906 1078.121094 1446.492188 1080.128906 1443.851562 1082.5625 C 1438.996094 1086.054688 1434.789062 1090.371094 1432.722656 1095.746094 C 1430.695312 1101.074219 1431.214844 1106.460938 1433.4375 1111.109375 C 1433.785156 1113.34375 1434.660156 1115.480469 1435.964844 1117.105469 C 1439.25 1121.222656 1444.027344 1123.253906 1449.203125 1123.863281 C 1457.171875 1125.941406 1466.664062 1124.785156 1474.34375 1122.503906 C 1483.683594 1119.710938 1492.023438 1113.308594 1495.34375 1103.863281 C 1498.882812 1093.726562 1495.160156 1083.082031 1486.960938 1077.246094 " fill-opacity="1" fill-rule="nonzero"/><path fill="#f67316" d="M 1325.335938 1132.121094 C 1308.085938 1125.015625 1293.347656 1136.722656 1283.28125 1149.527344 C 1274.757812 1160.355469 1266.175781 1175.085938 1265.335938 1189.109375 C 1265.035156 1194.117188 1266.292969 1198.636719 1268.542969 1202.417969 C 1269.972656 1206.988281 1272.660156 1211.195312 1276.855469 1214.644531 C 1303.023438 1236.132812 1332.210938 1196.628906 1339.027344 1174.09375 C 1343.890625 1158.015625 1343.328125 1139.5625 1325.335938 1132.121094 " fill-opacity="1" fill-rule="nonzero"/><path fill="#f67316" d="M 1473.28125 1104.324219 C 1473.730469 1100.4375 1472.277344 1096.5625 1468.96875 1094.0625 C 1467.699219 1093.101562 1466.15625 1092.722656 1464.644531 1092.828125 C 1463.976562 1092.433594 1463.574219 1092.226562 1464.519531 1092.851562 C 1464.507812 1092.851562 1464.507812 1092.851562 1464.496094 1092.851562 C 1459.941406 1090.046875 1453.03125 1090.449219 1449.964844 1095.421875 C 1447.878906 1098.800781 1446.769531 1102.398438 1447.566406 1106.390625 C 1448.375 1110.472656 1450.714844 1114.152344 1454.425781 1116.125 C 1457.992188 1118.039062 1462.039062 1118.222656 1465.808594 1116.679688 C 1469.234375 1115.269531 1471.289062 1112.421875 1472.925781 1109.273438 C 1473.628906 1107.890625 1473.675781 1106.042969 1473.28125 1104.324219 " fill-opacity="1" fill-rule="nonzero"/><path fill="#fdae31" d="M 1318.71875 1151.371094 C 1317.207031 1140.632812 1304.914062 1137.117188 1296.785156 1142.882812 C 1291.398438 1146.6875 1286.726562 1151.765625 1283.488281 1157.496094 C 1281.746094 1160.585938 1280.144531 1163.699219 1279.09375 1167.105469 C 1277.421875 1172.558594 1277.917969 1176.433594 1279.761719 1181.660156 C 1282.023438 1188.175781 1288.917969 1190.195312 1294.789062 1188.5 C 1295.859375 1188.613281 1296.96875 1188.625 1298.109375 1188.476562 C 1313.621094 1186.421875 1320.5625 1164.601562 1318.71875 1151.371094 " fill-opacity="1" fill-rule="nonzero"/><path fill="#fdd340" d="M 1651.789062 514.679688 C 1646.792969 494.242188 1636.578125 476.246094 1619.519531 466.90625 C 1603.492188 458.128906 1587.4375 454.378906 1569.089844 455.105469 C 1552.460938 455.796875 1535.578125 461.011719 1520.171875 466.941406 C 1518.417969 467.621094 1519.308594 470.179688 1521.046875 469.984375 C 1564.191406 465.464844 1610.675781 486.074219 1613.777344 534.492188 C 1592.652344 523.191406 1566.878906 522.636719 1543.859375 529.3125 C 1520.839844 536.003906 1500.257812 549.371094 1481.851562 564.722656 C 1510.460938 560.558594 1539.605469 558.367188 1568.285156 562.011719 C 1596.964844 565.644531 1625.320312 575.378906 1648.121094 593.164062 C 1655.882812 572.011719 1658.269531 541.273438 1651.789062 514.679688 " fill-opacity="1" fill-rule="nonzero"/><path fill="#e93405" d="M 653.523438 287.09375 C 655.910156 289.113281 658.34375 290.785156 660.820312 292.101562 C 672.125 271.789062 687.566406 253.578125 705.105469 238.480469 C 726.242188 220.292969 750.367188 204.433594 776.199219 192.726562 C 777.238281 188.933594 778.136719 185.113281 778.863281 181.25 C 783.777344 155.046875 775.359375 125.300781 749.917969 113.226562 C 690.414062 84.980469 646.613281 155.519531 636.027344 204.800781 C 630.445312 230.800781 631.160156 268.191406 653.523438 287.09375 " fill-opacity="1" fill-rule="nonzero"/><path fill="#e93405" d="M 1149.183594 497.378906 C 1136.960938 478.820312 1103.378906 474.101562 1085.792969 487.320312 C 1074.480469 495.796875 1068.332031 510.882812 1073.730469 524.527344 C 1078.585938 536.765625 1091.121094 544.179688 1104.058594 542.671875 C 1107.425781 543.464844 1110.875 543.90625 1114.242188 543.9375 C 1125.820312 544.113281 1137.292969 541.449219 1145.597656 532.925781 C 1154.914062 523.386719 1156.554688 508.542969 1149.183594 497.378906 " fill-opacity="1" fill-rule="nonzero"/><path fill="#e93405" d="M 628.230469 580.511719 C 626.6875 571.863281 621.289062 563.777344 612.78125 560.6875 C 607.117188 558.644531 601.085938 559.128906 596.023438 562.242188 C 594.59375 562.625 593.210938 563.140625 591.882812 563.777344 C 585.496094 566.441406 580.144531 571.664062 577.769531 578.828125 C 572.589844 594.421875 584.929688 609.84375 600.660156 611.121094 C 617.566406 612.496094 631.242188 597.222656 628.230469 580.511719 " fill-opacity="1" fill-rule="nonzero"/><path fill="#e93405" d="M 354.65625 1153.539062 C 349.996094 1141.175781 333.125 1140.910156 325.804688 1150.507812 C 318.445312 1160.148438 314.363281 1174.253906 319.183594 1185.8125 C 321.871094 1192.257812 329.722656 1196.847656 336.722656 1195.476562 C 341.09375 1194.621094 344.542969 1192.421875 346.953125 1189.28125 C 351.183594 1186.59375 354.460938 1182.570312 356.292969 1177.773438 C 359.316406 1169.835938 357.539062 1161.199219 354.65625 1153.539062 " fill-opacity="1" fill-rule="nonzero"/><path fill="#fdae31" d="M 746.851562 136.789062 C 736.414062 126.707031 719.566406 123.28125 705.210938 127.261719 C 687.484375 132.1875 670.382812 150.976562 661.964844 166.71875 C 654.558594 180.535156 649 195.574219 647.734375 211.203125 C 646.453125 226.832031 649.75 243.140625 658.757812 255.964844 C 670.648438 235.390625 688.867188 219.726562 708.609375 206.972656 C 712.046875 204.734375 761.3125 177.882812 761.703125 178.738281 C 757.980469 170.640625 757.886719 161.402344 755.894531 152.714844 C 754.40625 146.304688 751.1875 140.976562 746.851562 136.789062 " fill-opacity="1" fill-rule="nonzero"/><path fill="#fdae31" d="M 1117.734375 482.5 C 1101.796875 484.296875 1091.660156 501.519531 1097.945312 516.328125 C 1100.957031 523.433594 1108.417969 528.554688 1116.097656 529.070312 C 1120.871094 529.40625 1126.234375 528.089844 1130.386719 525.324219 C 1137.316406 524.113281 1143.5 519.996094 1145.722656 512.75 C 1151.027344 495.507812 1134.433594 480.609375 1117.734375 482.5 " fill-opacity="1" fill-rule="nonzero"/><path fill="#fdae31" d="M 615.511719 576.808594 C 615.003906 574.179688 613.644531 571.136719 611.210938 569.785156 C 609.113281 568.609375 607.253906 567.664062 604.832031 567.421875 C 602.585938 567.226562 600.40625 567.59375 598.304688 568.390625 C 596.980469 568.910156 595.664062 569.714844 594.546875 570.582031 C 593.09375 571.699219 592.066406 573.050781 591.375 574.5625 C 589.207031 578.238281 588.5625 582.863281 590.269531 586.878906 C 592.460938 592.023438 597.820312 595.066406 603.347656 594.421875 C 604.84375 594.238281 606.367188 593.789062 607.695312 593.082031 C 610.230469 591.734375 612.8125 589.738281 613.726562 586.878906 C 614.105469 585.691406 614.300781 584.503906 614.335938 583.292969 C 615.328125 581.285156 615.972656 579.105469 615.511719 576.808594 " fill-opacity="1" fill-rule="nonzero"/><path fill="#fdae31" d="M 342.753906 1175.003906 C 342.59375 1174.425781 342.457031 1173.875 342.191406 1173.34375 C 341.289062 1171.554688 340.023438 1170.195312 338.117188 1169.722656 C 335.003906 1168.222656 331.28125 1170.320312 330.867188 1173.910156 C 330.808594 1174.425781 330.886719 1174.890625 331.0625 1175.316406 C 330.183594 1178.324219 331.558594 1181.949219 334.707031 1182.996094 C 337.601562 1183.941406 341.796875 1182.753906 342.652344 1179.410156 C 343.054688 1177.875 343.203125 1176.539062 342.753906 1175.003906 " fill-opacity="1" fill-rule="nonzero"/><path fill="#fdd340" d="M 1128.703125 500.699219 C 1128.3125 498.160156 1126.683594 495.277344 1124.492188 493.847656 C 1122.292969 492.40625 1119.570312 491.507812 1116.917969 492.039062 C 1114 492.601562 1112.039062 494.066406 1110.054688 496.234375 C 1108.9375 497.46875 1107.816406 498.691406 1106.6875 499.925781 C 1106.132812 500.550781 1105.546875 501.125 1105.003906 501.773438 C 1103.527344 503.546875 1103.007812 505.417969 1102.640625 507.652344 C 1102.039062 511.113281 1104 514.875 1106.746094 516.847656 C 1109.097656 518.53125 1111.542969 518.851562 1114.089844 518.472656 C 1114.089844 518.507812 1114.089844 518.554688 1114.089844 518.597656 C 1115.09375 518.335938 1116.203125 518.136719 1117.136719 517.734375 C 1117.25 517.699219 1117.332031 517.617188 1117.4375 517.574219 C 1121.425781 516.097656 1124.609375 513.027344 1127.191406 509.71875 C 1128.53125 508.023438 1128.957031 505.890625 1128.679688 503.835938 C 1128.828125 502.71875 1128.839844 501.609375 1128.703125 500.699219 " fill-opacity="1" fill-rule="nonzero"/><path fill="#fdd340" d="M 727.835938 140.085938 C 725.019531 139.730469 722.105469 139.789062 719.3125 140.074219 C 706.28125 141.390625 693.6875 146.859375 683.828125 155.472656 C 666.09375 170.996094 656.046875 213.324219 660.09375 235.503906 C 681.730469 205.574219 713.109375 182.808594 748.28125 171.539062 C 744.683594 162.878906 745.894531 151.933594 739.332031 145.21875 C 736.300781 142.128906 732.183594 140.628906 727.835938 140.085938 " fill-opacity="1" fill-rule="nonzero"/><path fill="#fdd340" d="M 606.863281 583.039062 C 606.863281 583.339844 606.898438 583.316406 606.863281 583.039062 " fill-opacity="1" fill-rule="nonzero"/><path fill="#fdd340" d="M 603.667969 571.816406 C 601.363281 571.054688 598.054688 571.585938 596.738281 573.914062 C 596.230469 574.824219 595.722656 575.714844 595.203125 576.636719 C 594.972656 577.039062 594.742188 577.457031 594.5 577.882812 C 594.398438 578.054688 594.292969 578.230469 594.199219 578.414062 C 592.355469 579.925781 591.527344 582.933594 591.859375 585.160156 C 592.320312 588.183594 594.683594 590.640625 597.625 591.332031 C 600.289062 591.953125 602.964844 591.144531 604.84375 589.164062 C 606.96875 586.914062 607.40625 583.832031 606.320312 580.960938 C 606.714844 582.011719 606.839844 582.691406 606.863281 583.039062 C 606.875 582.886719 606.875 582.667969 606.921875 582.347656 C 606.992188 581.863281 607.046875 581.378906 607.105469 580.894531 L 607.484375 577.996094 C 607.808594 575.484375 606.113281 572.613281 603.667969 571.816406 " fill-opacity="1" fill-rule="nonzero"/><path fill="#e93405" d="M 1577.75 689.078125 C 1576.367188 688.988281 1574.984375 688.871094 1573.601562 688.734375 C 1573.636719 688.328125 1573.636719 687.914062 1573.636719 687.5 C 1574.199219 686.425781 1574.695312 685.332031 1575.078125 684.269531 C 1576.828125 679.34375 1577.257812 672.585938 1574.535156 667.878906 C 1569.011719 658.296875 1561.617188 654.28125 1550.6875 654.742188 C 1537.527344 655.296875 1525.351562 666.484375 1520.277344 678.042969 C 1515.316406 689.390625 1516.226562 702.550781 1522.664062 713.113281 C 1526.871094 720.023438 1532.59375 725.085938 1539.175781 728.730469 C 1550.039062 737.40625 1565.480469 740.53125 1578.871094 736.863281 C 1590.597656 733.632812 1599.421875 725.410156 1599.109375 712.480469 C 1598.867188 700.96875 1589.792969 689.863281 1577.75 689.078125 " fill-opacity="1" fill-rule="nonzero"/><path fill="#fee56d" d="M 1277.835938 485.707031 C 1257.480469 484.148438 1238.234375 494.148438 1222.953125 506.753906 C 1208.425781 518.714844 1187.828125 539.730469 1197.261719 560.398438 C 1202.417969 571.710938 1213.128906 576.046875 1224.996094 576.742188 C 1243.183594 579.878906 1264.273438 574.757812 1280.902344 567.789062 C 1298.59375 560.398438 1316.375 546.535156 1316.929688 525.738281 C 1317.484375 504.367188 1298.351562 487.285156 1277.835938 485.707031 " fill-opacity="1" fill-rule="nonzero"/><path fill="#fee56d" d="M 1168.363281 568.527344 C 1164.453125 565.324219 1158.328125 564.882812 1153.507812 565.796875 C 1148.308594 566.777344 1143.488281 569.253906 1140.246094 573.582031 C 1136.730469 578.273438 1135.289062 585.414062 1137.976562 590.882812 C 1139.3125 593.613281 1141.296875 596.140625 1143.820312 597.871094 C 1146.554688 599.738281 1148.917969 600.304688 1152.101562 601.03125 C 1154.210938 601.503906 1157.292969 600.765625 1159.226562 599.933594 C 1161.914062 598.746094 1164.058594 596.738281 1165.535156 594.25 C 1166.03125 593.765625 1166.492188 593.246094 1166.910156 592.679688 C 1168.234375 590.871094 1165.28125 594.722656 1166.492188 593.027344 C 1166.804688 592.597656 1167.164062 592.195312 1167.542969 591.816406 C 1169.089844 590.824219 1170.460938 589.660156 1171.578125 587.972656 C 1175.949219 581.398438 1174.371094 573.476562 1168.363281 568.527344 " fill-opacity="1" fill-rule="nonzero"/><path fill="#fee56d" d="M 727.386719 580.132812 C 726.496094 562.773438 717.546875 546.1875 699.742188 541.722656 C 681.589844 537.167969 663.695312 547.351562 655.078125 563.257812 C 641.933594 587.570312 641.265625 627.777344 665.875 645.261719 C 675.214844 651.894531 687.851562 654.210938 698.53125 649.542969 C 699.730469 649.023438 700.882812 648.421875 701.980469 647.765625 C 710.0625 644.351562 716.902344 637.617188 720.914062 629.367188 C 728.101562 614.652344 728.203125 596.128906 727.386719 580.132812 " fill-opacity="1" fill-rule="nonzero"/><path fill="#fee56d" d="M 681.753906 660.613281 C 680.460938 656.855469 677.695312 653.785156 674.335938 651.710938 C 670.949219 649.609375 667.246094 648.226562 663.230469 648.066406 C 657.570312 647.847656 653.417969 649.5625 648.703125 652.515625 C 646.636719 653.820312 644.746094 656.921875 643.90625 659.160156 C 642.707031 662.355469 642.707031 665.78125 643.640625 669.023438 C 645.496094 675.457031 650.582031 679.011719 656.9375 680.289062 C 659.691406 680.855469 662.367188 680.808594 665.136719 680.71875 C 666.359375 681.15625 667.660156 681.410156 669.011719 681.570312 C 673.933594 682.136719 680.519531 678.835938 681.84375 673.660156 C 682.15625 672.425781 682.457031 671.179688 682.734375 669.933594 C 681.925781 673.128906 682.019531 672.710938 682.976562 668.710938 C 683.285156 665.828125 682.6875 663.324219 681.753906 660.613281 " fill-opacity="1" fill-rule="nonzero"/><path fill="#fee56d" d="M 864.535156 370.808594 C 840.054688 371.335938 815.652344 376.179688 792.820312 385.085938 C 749.757812 401.855469 717.203125 437.667969 700.007812 480.597656 C 742.652344 452.132812 785.808594 455.394531 834.058594 451.910156 C 860.441406 450.007812 887.035156 450.804688 913.273438 454.253906 C 924.332031 455.695312 986.210938 461.667969 990.351562 472.511719 C 983.8125 455.394531 969.628906 441.382812 952.445312 435.027344 C 986.027344 435.996094 1017.175781 462.429688 1023.578125 495.417969 C 1025.941406 465.972656 1011.351562 436.882812 989.730469 416.757812 C 959.320312 388.476562 906.203125 369.988281 864.988281 370.785156 C 864.835938 370.785156 864.6875 370.808594 864.535156 370.808594 " fill-opacity="1" fill-rule="nonzero"/><path fill="#e93405" d="M 1331.277344 1266.671875 C 1330.527344 1254.011719 1315.441406 1247.953125 1304.949219 1252.589844 C 1301.375 1253.050781 1297.925781 1254.425781 1295.203125 1256.894531 C 1287.429688 1263.90625 1281.828125 1273.976562 1282.070312 1284.722656 C 1282.230469 1292.09375 1283.9375 1298.496094 1290.300781 1303.0625 C 1295.480469 1306.765625 1304.070312 1308.460938 1309.90625 1305.117188 C 1317.113281 1300.996094 1322.824219 1296.152344 1326.777344 1288.773438 C 1330.574219 1281.679688 1331.75 1274.679688 1331.277344 1266.671875 " fill-opacity="1" fill-rule="nonzero"/><path fill="#e93405" d="M 356.15625 929.996094 C 357.433594 929.394531 358.566406 928.703125 359.582031 927.941406 C 353.386719 919.464844 348.832031 909.707031 345.949219 899.671875 C 342.476562 887.574219 340.53125 874.703125 340.597656 861.886719 C 339.25 860.757812 337.84375 859.671875 336.402344 858.636719 C 326.585938 851.679688 312.804688 849.535156 303.0625 857.679688 C 280.261719 876.753906 300.917969 908.011719 319.125 921.644531 C 328.71875 928.828125 344.183594 935.597656 356.15625 929.996094 " fill-opacity="1" fill-rule="nonzero"/><path fill="#fdae31" d="M 312.136719 863.386719 C 306.035156 865.761719 301.445312 872.027344 300.375 878.65625 C 299.058594 886.859375 303.535156 897.398438 308.402344 903.824219 C 312.667969 909.476562 317.777344 914.585938 323.957031 918.058594 C 330.128906 921.515625 337.425781 923.234375 344.382812 921.964844 C 338.1875 913.210938 335.203125 902.796875 333.691406 892.300781 C 333.425781 890.46875 331.707031 865.199219 332.132812 865.199219 C 328.109375 865.199219 324.304688 863.503906 320.371094 862.695312 C 317.453125 862.082031 314.664062 862.40625 312.136719 863.386719 " fill-opacity="1" fill-rule="nonzero"/><path fill="#fdd340" d="M 309.898438 871.808594 C 309.230469 872.890625 308.699219 874.101562 308.285156 875.289062 C 306.371094 880.871094 306.234375 887.078125 307.917969 892.742188 C 310.925781 902.949219 326.390625 915.035156 336.238281 917.574219 C 328.050781 903.050781 324.636719 885.902344 326.644531 869.339844 C 322.425781 869.199219 318.15625 866.640625 314.179688 868.058594 C 312.34375 868.714844 310.949219 870.121094 309.898438 871.808594 " fill-opacity="1" fill-rule="nonzero"/><path fill="#fdd340" d="M 1199.925781 1080.96875 C 1169.238281 1140.082031 1149.898438 1220.402344 1164.488281 1286.742188 C 1123.984375 1205.417969 1130.917969 1113.078125 1173.042969 1033.855469 C 1125.980469 1050.070312 1084.535156 1082.089844 1056.960938 1123.53125 C 1054.964844 1070.117188 1078.066406 1016.3125 1118.164062 980.996094 C 1101.902344 998.25 1090.035156 1021.769531 1088.132812 1045.527344 C 1108.867188 1015.746094 1160.980469 991.503906 1193.535156 976.695312 C 1238.050781 956.464844 1286.128906 944.90625 1334.226562 937.019531 C 1312.003906 940.664062 1272.300781 981.746094 1257.597656 997.960938 C 1235.304688 1022.539062 1215.238281 1051.433594 1199.925781 1080.96875 " fill-opacity="1" fill-rule="nonzero"/></svg>