<svg xmlns="http://www.w3.org/2000/svg" xmlns:xlink="http://www.w3.org/1999/xlink" width="2380" zoomAndPan="magnify" viewBox="0 0 1784.88 1784.99993" height="2380" preserveAspectRatio="xMidYMid meet" version="1.0"><defs><clipPath id="ed8467a7ce"><path d="M 0 68 L 1784.761719 68 L 1784.761719 1692 L 0 1692 Z M 0 68 " clip-rule="nonzero"/></clipPath></defs><g clip-path="url(#ed8467a7ce)"><path fill="#ed1e24" d="M 1077.851562 1150.328125 L 1784.863281 1691.320312 L 1135.148438 1068.59375 L 1445.003906 1210.886719 L 1190.539062 956.394531 L 1382.234375 885.359375 L 1216.492188 836.210938 L 1738.277344 447.066406 L 1052.398438 672.113281 L 1240.320312 334.035156 L 970.792969 521.921875 L 974.09375 340.207031 L 902.027344 460.320312 L 595.730469 74.324219 L 676.910156 610.308594 L 24.5 68.4375 L 565.59375 682.433594 L 527.011719 662.195312 L 320.667969 553.953125 C 320.667969 553.953125 425.039062 691.472656 486.125 767.578125 L 0.0078125 731.210938 L 502.484375 937.910156 L 195.53125 1091.734375 L 504.84375 1014.582031 L 64.3125 1504.035156 L 595.730469 1058.121094 L 486.433594 1246.214844 L 611.449219 1121.195312 L 667.839844 1645.933594 L 853.210938 1199.535156 L 1079.171875 1588.964844 L 1077.851562 1150.328125 " fill-opacity="1" fill-rule="nonzero"/></g><path fill="#f2541b" d="M 1007.65625 1065.351562 L 1520.875 1458.054688 L 1049.25 1006.011719 L 1274.167969 1109.308594 L 1089.457031 924.566406 L 1228.605469 873.003906 L 1108.292969 837.335938 L 1487.054688 554.851562 L 989.167969 718.199219 L 1125.589844 472.792969 L 929.929688 609.183594 L 932.328125 477.28125 L 880.019531 564.464844 L 657.679688 284.28125 L 716.609375 673.351562 L 243.019531 280 L 635.800781 725.707031 L 607.792969 711.007812 L 458.015625 632.449219 C 458.015625 632.449219 533.773438 732.261719 578.113281 787.507812 L 225.246094 761.109375 L 589.996094 911.160156 L 367.171875 1022.8125 L 591.707031 966.800781 L 271.921875 1322.105469 L 657.679688 998.421875 L 578.339844 1134.960938 L 669.089844 1044.203125 L 710.023438 1425.117188 L 844.582031 1101.0625 L 1008.613281 1383.761719 L 1007.65625 1065.351562 " fill-opacity="1" fill-rule="nonzero"/><path fill="#efee0e" d="M 957.949219 1031.253906 L 1333.472656 1318.59375 L 988.375 987.847656 L 1152.957031 1063.417969 L 1017.800781 928.246094 L 1119.613281 890.511719 L 1031.585938 864.417969 L 1308.734375 657.738281 L 944.429688 777.253906 L 1044.246094 597.683594 L 901.082031 697.480469 L 902.828125 600.972656 L 864.5625 664.769531 L 701.871094 459.753906 L 744.992188 744.433594 L 398.46875 456.621094 L 685.867188 782.746094 L 665.375 771.988281 L 555.78125 714.503906 C 555.78125 714.503906 611.210938 787.535156 643.660156 827.960938 L 385.464844 808.640625 L 652.347656 918.433594 L 489.3125 1000.136719 L 653.601562 959.152344 L 419.617188 1219.128906 L 701.871094 982.277344 L 643.820312 1082.195312 L 710.21875 1015.78125 L 740.171875 1294.492188 L 838.632812 1057.398438 L 958.648438 1264.230469 L 957.949219 1031.253906 " fill-opacity="1" fill-rule="nonzero"/><path fill="#ffffff" d="M 910.335938 973.421875 L 1155.929688 1176.527344 L 931.9375 944.953125 L 1040.851562 1000.0625 L 953.265625 905.578125 L 1022.792969 882.753906 L 964.171875 862.929688 L 1156.097656 730.789062 L 907.683594 802.007812 L 979.492188 683.601562 L 880.523438 747.171875 L 884.160156 682.199219 L 856.757812 724.195312 L 752.402344 581.980469 L 774.195312 774.816406 L 548.132812 572.132812 L 733.398438 799.101562 L 719.871094 791.339844 L 647.515625 749.835938 C 647.515625 749.835938 682.996094 800.4375 703.820312 828.496094 L 530.40625 808.902344 L 707.367188 889.648438 L 595.472656 940.527344 L 707.171875 917.109375 L 542.949219 1086.242188 L 739.097656 933.921875 L 697.449219 999.726562 L 743.867188 956.6875 L 756.941406 1145.171875 L 829.292969 987.984375 L 904.871094 1130.363281 L 910.335938 973.421875 " fill-opacity="1" fill-rule="nonzero"/></svg>