<svg xmlns="http://www.w3.org/2000/svg" xmlns:xlink="http://www.w3.org/1999/xlink" width="2380" zoomAndPan="magnify" viewBox="0 0 1784.88 1784.99993" height="2380" preserveAspectRatio="xMidYMid meet" version="1.0"><defs><clipPath id="6b1787487c"><path d="M 416 120.195312 L 1349 120.195312 L 1349 1632.945312 L 416 1632.945312 Z M 416 120.195312 " clip-rule="nonzero"/></clipPath></defs><path fill="#e51f1f" d="M 882.640625 157.460938 C 645.648438 157.460938 453.53125 349.558594 453.53125 586.523438 C 453.53125 1130.328125 882.640625 1596.167969 882.640625 1596.167969 C 882.640625 1596.167969 1311.746094 1130.328125 1311.746094 586.523438 C 1311.746094 349.558594 1119.628906 157.460938 882.640625 157.460938 Z M 882.640625 807.550781 C 758.566406 807.550781 657.910156 706.90625 657.910156 582.722656 C 657.910156 458.664062 758.566406 358.015625 882.640625 358.015625 C 1006.714844 358.015625 1107.371094 458.664062 1107.371094 582.722656 C 1107.371094 706.90625 1006.714844 807.550781 882.640625 807.550781 Z M 882.640625 807.550781 " fill-opacity="1" fill-rule="nonzero"/><g clip-path="url(#6b1787487c)"><path fill="#231f20" d="M 882.640625 1632.945312 C 872.351562 1632.945312 862.546875 1628.640625 855.582031 1621.078125 C 837.667969 1601.632812 416.75 1138.332031 416.75 586.523438 C 416.75 329.660156 625.75 120.683594 882.640625 120.683594 C 1139.527344 120.683594 1348.527344 329.660156 1348.527344 586.523438 C 1348.527344 1138.332031 927.609375 1601.632812 909.699219 1621.078125 C 902.734375 1628.640625 892.925781 1632.945312 882.640625 1632.945312 Z M 882.640625 194.238281 C 666.308594 194.238281 490.3125 370.214844 490.3125 586.523438 C 490.3125 1030.40625 789.804688 1427.324219 882.640625 1539.664062 C 975.472656 1427.324219 1274.96875 1030.40625 1274.96875 586.523438 C 1274.96875 370.214844 1098.972656 194.238281 882.640625 194.238281 Z M 882.640625 844.328125 C 738.433594 844.328125 621.128906 726.972656 621.128906 582.722656 C 621.128906 438.546875 738.433594 321.238281 882.640625 321.238281 C 1026.84375 321.238281 1144.152344 438.546875 1144.152344 582.722656 C 1144.152344 726.972656 1026.84375 844.328125 882.640625 844.328125 Z M 882.640625 394.792969 C 779.003906 394.792969 694.691406 479.097656 694.691406 582.722656 C 694.691406 686.410156 779.003906 770.773438 882.640625 770.773438 C 986.277344 770.773438 1070.589844 686.421875 1070.589844 582.722656 C 1070.589844 479.097656 986.277344 394.792969 882.640625 394.792969 Z M 882.640625 394.792969 " fill-opacity="1" fill-rule="nonzero"/></g></svg>