<svg xmlns="http://www.w3.org/2000/svg" xmlns:xlink="http://www.w3.org/1999/xlink" width="2380" zoomAndPan="magnify" viewBox="0 0 1784.88 1784.99993" height="2380" preserveAspectRatio="xMidYMid meet" version="1.0"><defs><clipPath id="3ded9dfa0d"><path d="M 151.738281 1082.097656 L 702.691406 1082.097656 L 702.691406 1633.050781 L 151.738281 1633.050781 Z M 151.738281 1082.097656 " clip-rule="nonzero"/></clipPath><clipPath id="47431449d1"><path d="M 553.664062 151.800781 L 1632.902344 151.800781 L 1632.902344 1231 L 553.664062 1231 Z M 553.664062 151.800781 " clip-rule="nonzero"/></clipPath><clipPath id="d3c5bbb0ba"><path d="M 1240.097656 151.800781 L 1632.902344 151.800781 L 1632.902344 544.691406 L 1240.097656 544.691406 Z M 1240.097656 151.800781 " clip-rule="nonzero"/></clipPath><clipPath id="29d072540c"><path d="M 819 162 L 1632.902344 162 L 1632.902344 1231 L 819 1231 Z M 819 162 " clip-rule="nonzero"/></clipPath><clipPath id="f3436b9a33"><path d="M 1580 159 L 1632.902344 159 L 1632.902344 544.691406 L 1580 544.691406 Z M 1580 159 " clip-rule="nonzero"/></clipPath></defs><path fill="#f15a24" d="M 1079.636719 1338.34375 C 1018.011719 1399.972656 953.304688 1446.578125 899.023438 1471.726562 L 886.269531 1223.777344 C 898.222656 1210.167969 910.957031 1196.550781 924.410156 1183.105469 C 1045.148438 1062.367188 1177.773438 999.273438 1220.621094 1042.121094 C 1263.480469 1084.980469 1200.386719 1217.59375 1079.636719 1338.34375 " fill-opacity="1" fill-rule="nonzero"/><path fill="#e05421" d="M 899.023438 1471.726562 L 898.160156 1454.949219 C 943.820312 1428.199219 994.132812 1389.0625 1042.546875 1340.648438 C 1128.351562 1254.84375 1185.039062 1163.039062 1195.289062 1101.714844 C 1208.183594 1093.5 1221.082031 1084.917969 1233.929688 1075.976562 C 1234.011719 1077.492188 1234.054688 1079.035156 1234.054688 1080.605469 C 1234.074219 1140.777344 1174.738281 1243.242188 1079.636719 1338.34375 C 1018.011719 1399.972656 953.304688 1446.578125 899.023438 1471.726562 " fill-opacity="1" fill-rule="nonzero"/><path fill="#f15a24" d="M 445.128906 703.828125 C 383.492188 765.457031 336.894531 830.160156 311.738281 884.441406 L 559.6875 897.195312 C 573.308594 885.246094 586.917969 872.507812 600.359375 859.058594 C 721.101562 738.316406 784.191406 605.703125 741.34375 562.84375 C 698.484375 519.996094 565.871094 583.085938 445.128906 703.828125 " fill-opacity="1" fill-rule="nonzero"/><path fill="#ededed" d="M 503.035156 894.285156 L 325.660156 885.175781 C 325.660156 885.164062 325.660156 885.164062 325.667969 885.15625 L 503.035156 894.285156 " fill-opacity="1" fill-rule="nonzero"/><path fill="#e05421" d="M 559.042969 897.160156 L 503.035156 894.285156 L 325.667969 885.15625 C 351.953125 843.136719 388.117188 797.851562 431.855469 754.113281 C 520.066406 665.890625 614.640625 608.453125 675.894531 600.621094 C 612.671875 702.65625 572.664062 805.148438 559.042969 897.160156 " fill-opacity="1" fill-rule="nonzero"/><g clip-path="url(#3ded9dfa0d)"><path fill="#f56831" d="M 693.976562 1165.40625 L 693.855469 1165.464844 C 688.949219 1146.800781 680.191406 1130.554688 667.289062 1117.546875 C 654.269531 1104.429688 637.960938 1095.546875 619.171875 1090.617188 L 619.179688 1090.609375 L 618.835938 1090.519531 C 618.554688 1090.449219 618.273438 1090.386719 617.992188 1090.316406 C 495.863281 1059.074219 362.164062 1121.753906 280.71875 1211.003906 C 277.589844 1214.445312 279.574219 1218.722656 283.648438 1217.242188 C 295.925781 1212.769531 307.710938 1209.046875 319.253906 1205.96875 C 322.148438 1205.203125 323.164062 1208.5 320.71875 1210.714844 C 312.859375 1217.839844 305.082031 1225.25 297.40625 1232.925781 C 175.175781 1355.210938 154.421875 1587.730469 151.757812 1627.570312 C 151.535156 1630.816406 154.007812 1633.304688 157.261719 1633.085938 C 197.003906 1630.394531 429.625 1609.691406 551.910156 1487.417969 C 559.433594 1479.894531 566.691406 1472.273438 573.6875 1464.5625 C 575.898438 1462.128906 579.199219 1463.152344 578.421875 1466.035156 C 575.386719 1477.363281 571.726562 1488.917969 567.34375 1500.9375 C 565.863281 1505.011719 570.140625 1507.007812 573.582031 1503.867188 C 663.117188 1422.164062 725.925781 1287.855469 693.976562 1165.40625 " fill-opacity="1" fill-rule="nonzero"/></g><path fill="#fec34c" d="M 606.109375 1347.296875 C 585.320312 1375.460938 560.835938 1404.011719 533.140625 1431.714844 C 444.460938 1520.386719 321.582031 1550.828125 259.011719 1560.96875 C 235.839844 1564.71875 219.992188 1548.867188 223.738281 1525.695312 C 233.882812 1463.117188 264.320312 1340.25 352.992188 1251.570312 C 368.039062 1236.53125 383.335938 1222.429688 398.691406 1209.355469 C 410.191406 1199.558594 421.722656 1190.339844 433.195312 1181.730469 C 437.367188 1178.601562 437.066406 1172.9375 432.703125 1172.847656 C 420.105469 1172.621094 407.210938 1173 394.015625 1174.011719 C 392.085938 1174.164062 391.863281 1171.710938 393.707031 1170.433594 C 424.738281 1148.917969 461.199219 1132.160156 495.875 1119.8125 C 497.097656 1119.378906 498.316406 1118.949219 499.542969 1118.523438 C 555.984375 1098.871094 610.777344 1105.453125 645.191406 1137.769531 C 646.179688 1138.707031 647.160156 1139.648438 648.128906 1140.621094 C 649.144531 1141.632812 650.140625 1142.664062 651.109375 1143.707031 C 684.371094 1179.234375 689.53125 1236.585938 666.953125 1294.578125 C 666.386719 1296.015625 665.824219 1297.453125 665.242188 1298.898438 C 653.128906 1329.066406 636.203125 1360.316406 614.296875 1391.242188 C 613.023438 1393.023438 610.609375 1392.808594 610.742188 1390.921875 C 612.019531 1372.894531 612.476562 1347.792969 612.257812 1344.75 C 612.203125 1344.015625 610.335938 1341.785156 608.007812 1344.714844 C 607.34375 1345.550781 606.753906 1346.433594 606.109375 1347.296875 " fill-opacity="1" fill-rule="nonzero"/><path fill="#fbefa9" d="M 567.890625 1324.566406 C 507.304688 1385.152344 427.339844 1409.929688 386.808594 1419.121094 C 372.441406 1422.375 362.449219 1412.390625 365.710938 1398.015625 C 374.894531 1357.492188 399.679688 1277.527344 460.265625 1216.941406 C 544.878906 1132.328125 637.5625 1087.828125 667.289062 1117.546875 C 697.003906 1147.269531 652.503906 1239.953125 567.890625 1324.566406 " fill-opacity="1" fill-rule="nonzero"/><g clip-path="url(#47431449d1)"><path fill="#f2f2f2" d="M 1403.140625 933.828125 C 1220.550781 1116.417969 1007.117188 1222.640625 839.070312 1230.367188 C 787.851562 1232.738281 740.839844 1225.949219 700.214844 1209.363281 L 575.28125 1084.441406 C 558.640625 1043.648438 551.863281 996.433594 554.316406 944.976562 C 562.28125 777.035156 668.46875 563.902344 850.847656 381.523438 C 1067.253906 165.117188 1419.8125 148.851562 1564.277344 152.132812 C 1574.8125 152.390625 1584.75 154.941406 1593.605469 159.324219 C 1595.582031 160.320312 1597.496094 161.359375 1599.359375 162.5 C 1599.832031 162.789062 1600.285156 163.082031 1600.742188 163.390625 C 1608.496094 168.433594 1615.191406 174.96875 1620.410156 182.601562 C 1620.710938 183.042969 1621.019531 183.5 1621.300781 183.949219 C 1628.15625 194.472656 1632.214844 206.960938 1632.523438 220.367188 C 1634.136719 291.574219 1631.015625 413.304688 1601.527344 544.390625 C 1571.183594 679.273438 1512.902344 824.066406 1403.140625 933.828125 " fill-opacity="1" fill-rule="nonzero"/></g><g clip-path="url(#d3c5bbb0ba)"><path fill="#f15a24" d="M 1476.09375 308.652344 C 1407.011719 239.5625 1323.0625 197.234375 1240.246094 183.207031 C 1371.34375 153.6875 1493.125 150.566406 1564.324219 152.179688 C 1601.675781 153.042969 1631.71875 183.078125 1632.566406 220.414062 C 1634.179688 291.621094 1631.058594 413.402344 1601.546875 544.515625 C 1587.519531 461.691406 1545.183594 377.730469 1476.09375 308.652344 " fill-opacity="1" fill-rule="nonzero"/></g><path fill="#4d4d4d" d="M 839.070312 1230.367188 C 787.851562 1232.738281 740.839844 1225.949219 700.214844 1209.363281 L 575.28125 1084.441406 C 558.640625 1043.648438 551.863281 996.433594 554.316406 944.976562 C 612.867188 973.464844 669.261719 1013.183594 719.769531 1063.699219 C 770.625 1114.546875 810.554688 1171.367188 839.070312 1230.367188 " fill-opacity="1" fill-rule="nonzero"/><g clip-path="url(#29d072540c)"><path fill="#ececec" d="M 819.507812 1230.824219 C 819.5 1230.824219 819.492188 1230.824219 819.492188 1230.824219 C 819.492188 1230.824219 819.5 1230.824219 819.507812 1230.824219 M 819.507812 1230.824219 C 825.957031 1230.824219 832.484375 1230.675781 839.070312 1230.367188 C 854.480469 1229.660156 870.261719 1228.125 886.375 1225.78125 C 870.261719 1228.125 854.480469 1229.660156 839.070312 1230.367188 C 832.484375 1230.675781 825.964844 1230.824219 819.507812 1230.824219 M 1233.929688 1075.976562 C 1291.722656 1035.746094 1348.808594 988.160156 1403.140625 933.828125 C 1467.027344 869.941406 1513.464844 794.191406 1547.113281 715.4375 C 1513.464844 794.191406 1467.027344 869.941406 1403.140625 933.828125 C 1348.808594 988.160156 1291.722656 1035.746094 1233.929688 1075.976562 M 1547.265625 715.082031 C 1547.273438 715.066406 1547.273438 715.054688 1547.28125 715.046875 C 1547.28125 715.054688 1547.273438 715.074219 1547.265625 715.082031 M 1601.546875 544.515625 L 1601.527344 544.402344 C 1601.527344 544.4375 1601.535156 544.480469 1601.546875 544.515625 C 1627.195312 430.558594 1632.910156 323.65625 1632.910156 250.878906 C 1632.910156 323.65625 1627.195312 430.558594 1601.546875 544.515625 M 1632.566406 220.414062 C 1632.546875 219.769531 1632.53125 219.125 1632.496094 218.480469 C 1632.53125 219.125 1632.546875 219.769531 1632.566406 220.414062 M 1632.496094 218.4375 C 1632.488281 218.417969 1632.488281 218.410156 1632.488281 218.382812 C 1632.488281 218.402344 1632.488281 218.429688 1632.496094 218.4375 M 1632.488281 218.3125 C 1632.488281 218.304688 1632.488281 218.296875 1632.488281 218.285156 C 1632.488281 218.296875 1632.488281 218.304688 1632.488281 218.3125 M 1599.359375 162.5 C 1599.179688 162.394531 1599.011719 162.296875 1598.835938 162.191406 C 1599.011719 162.296875 1599.179688 162.394531 1599.359375 162.5 M 1598.777344 162.15625 C 1598.777344 162.15625 1598.765625 162.144531 1598.765625 162.144531 C 1598.765625 162.144531 1598.777344 162.15625 1598.777344 162.15625 " fill-opacity="1" fill-rule="nonzero"/></g><path fill="#e0e0e0" d="M 839.070312 1230.367188 C 814.523438 1179.578125 781.511719 1130.386719 740.347656 1085.246094 C 740.585938 1085.058594 740.824219 1084.875 741.050781 1084.691406 L 767.855469 1110.1875 C 798.058594 1121.636719 831.902344 1127.203125 868.347656 1127.203125 C 877.246094 1127.203125 886.304688 1126.867188 895.496094 1126.207031 C 1049.214844 1115.242188 1242.300781 1013.023438 1405.425781 841.574219 C 1503.472656 738.527344 1553.589844 604.574219 1578.355469 480.339844 L 1578.375 480.445312 C 1579.175781 476.429688 1579.945312 472.4375 1580.695312 468.449219 C 1590.265625 493.5625 1597.222656 519.042969 1601.527344 544.402344 C 1588.871094 600.648438 1571.351562 658.617188 1547.28125 715.046875 C 1547.273438 715.054688 1547.273438 715.066406 1547.265625 715.082031 C 1547.210938 715.207031 1547.167969 715.3125 1547.113281 715.4375 C 1513.464844 794.191406 1467.027344 869.941406 1403.140625 933.828125 C 1348.808594 988.160156 1291.722656 1035.746094 1233.929688 1075.976562 C 1221.082031 1084.917969 1208.183594 1093.5 1195.289062 1101.714844 C 1089.128906 1169.292969 982.058594 1211.835938 886.375 1225.78125 C 870.261719 1228.125 854.480469 1229.660156 839.070312 1230.367188 M 1601.042969 163.59375 C 1598.722656 162.066406 1596.316406 160.679688 1593.808594 159.4375 C 1593.808594 159.4375 1593.808594 159.4375 1593.808594 159.429688 C 1595.503906 160.285156 1597.160156 161.183594 1598.765625 162.144531 C 1598.765625 162.144531 1598.777344 162.15625 1598.777344 162.15625 C 1598.792969 162.164062 1598.820312 162.171875 1598.835938 162.191406 C 1599.011719 162.296875 1599.179688 162.394531 1599.359375 162.5 C 1599.832031 162.789062 1600.285156 163.082031 1600.742188 163.390625 C 1600.847656 163.449219 1600.945312 163.523438 1601.042969 163.59375 " fill-opacity="1" fill-rule="nonzero"/><g clip-path="url(#f3436b9a33)"><path fill="#df5321" d="M 1601.546875 544.515625 C 1601.535156 544.480469 1601.527344 544.4375 1601.527344 544.402344 C 1597.222656 519.042969 1590.265625 493.5625 1580.695312 468.449219 C 1602.460938 352.320312 1602.480469 245.914062 1599.5 182.910156 C 1599.101562 174.539062 1597.089844 166.636719 1593.808594 159.4375 C 1596.316406 160.679688 1598.722656 162.066406 1601.042969 163.59375 C 1601.210938 163.707031 1601.367188 163.820312 1601.535156 163.9375 C 1601.960938 164.21875 1602.382812 164.507812 1602.796875 164.800781 C 1603.257812 165.117188 1603.714844 165.445312 1604.164062 165.78125 C 1604.667969 166.148438 1605.171875 166.53125 1605.664062 166.917969 C 1606.027344 167.199219 1606.386719 167.480469 1606.738281 167.773438 C 1607.3125 168.230469 1607.859375 168.707031 1608.417969 169.183594 C 1608.6875 169.429688 1608.972656 169.667969 1609.253906 169.917969 C 1609.871094 170.464844 1610.472656 171.027344 1611.070312 171.601562 L 1611.679688 172.183594 C 1612.351562 172.84375 1613.003906 173.515625 1613.636719 174.195312 L 1614.007812 174.582031 C 1614.75 175.386719 1615.464844 176.195312 1616.167969 177.027344 L 1616.230469 177.105469 C 1617.90625 179.097656 1619.46875 181.1875 1620.914062 183.367188 L 1621.300781 183.949219 L 1621.445312 184.171875 C 1623.085938 186.726562 1624.574219 189.390625 1625.890625 192.160156 L 1625.925781 192.25 C 1629.683594 200.222656 1631.992188 209.007812 1632.488281 218.285156 C 1632.488281 218.296875 1632.488281 218.304688 1632.488281 218.3125 C 1632.488281 218.339844 1632.488281 218.367188 1632.488281 218.382812 C 1632.488281 218.410156 1632.488281 218.417969 1632.496094 218.4375 C 1632.496094 218.453125 1632.496094 218.464844 1632.496094 218.480469 C 1632.53125 219.125 1632.546875 219.769531 1632.566406 220.414062 C 1632.777344 229.734375 1632.910156 239.914062 1632.910156 250.878906 C 1632.910156 323.65625 1627.195312 430.558594 1601.546875 544.515625 " fill-opacity="1" fill-rule="nonzero"/></g><path fill="#474747" d="M 819.507812 1230.824219 C 819.5 1230.824219 819.492188 1230.824219 819.492188 1230.824219 C 776.289062 1230.824219 736.421875 1223.953125 701.296875 1209.804688 C 701.246094 1209.789062 701.191406 1209.761719 701.132812 1209.746094 C 700.832031 1209.621094 700.523438 1209.496094 700.214844 1209.363281 L 646.101562 1155.253906 C 671.316406 1137.507812 704.023438 1113.683594 740.347656 1085.246094 C 781.511719 1130.386719 814.523438 1179.578125 839.070312 1230.367188 C 832.484375 1230.675781 825.957031 1230.824219 819.507812 1230.824219 " fill-opacity="1" fill-rule="nonzero"/><path fill="#e0e0e0" d="M 685.378906 1031.714844 C 644.167969 996.132812 599.890625 967.148438 554.316406 944.976562 C 562.28125 777.035156 668.46875 563.902344 850.847656 381.523438 C 863.328125 369.042969 876.285156 357.25 889.613281 346.066406 C 888.820312 346.894531 888 347.699219 887.203125 348.535156 C 724.277344 519.785156 631.820312 717.4375 628.292969 871.421875 C 627.207031 918.613281 634.476562 961.691406 650.632812 998.664062 L 685.378906 1031.714844 " fill-opacity="1" fill-rule="nonzero"/><path fill="#474747" d="M 629.367188 1138.519531 L 575.28125 1084.441406 C 560.851562 1049.066406 553.839844 1008.863281 553.832031 965.246094 C 553.824219 958.566406 553.992188 951.8125 554.316406 944.976562 C 599.890625 967.148438 644.167969 996.132812 685.378906 1031.714844 L 699.066406 1044.742188 C 670.613281 1081.082031 646.972656 1113.515625 629.367188 1138.519531 " fill-opacity="1" fill-rule="nonzero"/><path fill="#f15a24" d="M 808.617188 1029.546875 C 695.820312 1125.582031 594.042969 1190.578125 594.042969 1190.578125 C 594.042969 1190.578125 657.671875 1090.6875 755.074219 976.015625 C 850.105469 864.136719 954.867188 800.199219 969.648438 814.980469 C 984.429688 829.765625 920.378906 934.398438 808.617188 1029.546875 " fill-opacity="1" fill-rule="nonzero"/><path fill="#f5835b" d="M 637.722656 1146.875 C 637.722656 1146.875 700.433594 1073.734375 786.054688 983.148438 C 866.953125 897.558594 940.742188 834.625 949.160156 834.625 C 949.433594 834.625 949.636719 834.695312 949.765625 834.828125 C 954.019531 839.078125 889.78125 914.988281 801.445312 998.550781 C 712.289062 1082.882812 637.722656 1146.875 637.722656 1146.875 " fill-opacity="1" fill-rule="nonzero"/><path fill="#f15a24" d="M 1053.636719 559.113281 C 1063.160156 469.488281 1143.539062 404.554688 1233.171875 414.082031 C 1322.796875 423.605469 1387.730469 503.984375 1378.207031 593.609375 C 1368.679688 683.242188 1288.300781 748.175781 1198.667969 738.652344 C 1109.042969 729.125 1044.109375 648.738281 1053.636719 559.113281 " fill-opacity="1" fill-rule="nonzero"/><path fill="#0071bc" d="M 1100.320312 564.078125 C 1107.113281 500.230469 1164.367188 453.976562 1228.207031 460.765625 C 1292.058594 467.550781 1338.300781 524.8125 1331.519531 588.652344 C 1324.738281 652.492188 1267.476562 698.746094 1203.632812 691.964844 C 1139.792969 685.171875 1093.539062 627.921875 1100.320312 564.078125 " fill-opacity="1" fill-rule="nonzero"/><path fill="#e05421" d="M 1216.078125 692.625 C 1274.761719 692.609375 1325.179688 648.3125 1331.519531 588.652344 C 1331.527344 588.597656 1331.527344 588.546875 1331.539062 588.484375 C 1331.527344 588.546875 1331.527344 588.597656 1331.519531 588.652344 C 1325.179688 648.3125 1274.761719 692.617188 1216.078125 692.625 M 1331.546875 588.433594 C 1331.546875 588.398438 1331.554688 588.351562 1331.554688 588.316406 C 1331.554688 588.363281 1331.546875 588.398438 1331.546875 588.433594 M 1331.5625 588.253906 C 1331.5625 588.210938 1331.574219 588.148438 1331.582031 588.105469 C 1331.574219 588.160156 1331.5625 588.203125 1331.5625 588.253906 M 1331.582031 588.027344 C 1331.589844 588 1331.589844 587.980469 1331.589844 587.957031 C 1331.589844 587.980469 1331.589844 588 1331.582031 588.027344 M 1331.597656 587.859375 C 1331.609375 587.839844 1331.609375 587.824219 1331.609375 587.804688 C 1331.609375 587.824219 1331.597656 587.839844 1331.597656 587.859375 M 1100.320312 564.078125 C 1100.746094 560.082031 1101.371094 556.167969 1102.171875 552.320312 C 1101.371094 556.167969 1100.746094 560.082031 1100.320312 564.078125 " fill-opacity="1" fill-rule="nonzero"/><path fill="#0069af" d="M 1216.0625 692.625 C 1211.960938 692.625 1207.804688 692.40625 1203.632812 691.964844 C 1143.964844 685.625 1099.660156 635.199219 1099.660156 576.507812 C 1099.660156 572.40625 1099.878906 568.25 1100.320312 564.078125 C 1100.746094 560.082031 1101.371094 556.167969 1102.171875 552.320312 C 1109.519531 602.765625 1147.941406 643.390625 1198.175781 648.726562 C 1201.886719 649.125 1205.566406 649.320312 1209.21875 649.320312 C 1264.8125 649.320312 1312.980469 604.617188 1319.347656 544.710938 C 1320.089844 537.777344 1320.203125 530.933594 1319.796875 524.21875 C 1329.367188 543.238281 1333.855469 565.085938 1331.609375 587.804688 C 1331.609375 587.824219 1331.609375 587.839844 1331.597656 587.859375 C 1331.597656 587.894531 1331.597656 587.921875 1331.589844 587.957031 C 1331.589844 587.980469 1331.589844 588 1331.582031 588.027344 C 1331.582031 588.050781 1331.582031 588.078125 1331.582031 588.105469 C 1331.574219 588.148438 1331.5625 588.210938 1331.5625 588.253906 C 1331.5625 588.273438 1331.554688 588.300781 1331.554688 588.316406 C 1331.554688 588.351562 1331.546875 588.398438 1331.546875 588.433594 C 1331.539062 588.449219 1331.539062 588.46875 1331.539062 588.484375 C 1331.527344 588.546875 1331.527344 588.597656 1331.519531 588.652344 C 1325.179688 648.3125 1274.761719 692.609375 1216.078125 692.625 C 1216.078125 692.625 1216.070312 692.625 1216.0625 692.625 " fill-opacity="1" fill-rule="nonzero"/></svg>