<svg xmlns="http://www.w3.org/2000/svg" xmlns:xlink="http://www.w3.org/1999/xlink" width="2380" zoomAndPan="magnify" viewBox="0 0 1784.88 1784.99993" height="2380" preserveAspectRatio="xMidYMid meet" version="1.0"><defs><clipPath id="e543234fa0"><path d="M 0 1121.050781 L 663.886719 1121.050781 L 663.886719 1784.9375 L 0 1784.9375 Z M 0 1121.050781 " clip-rule="nonzero"/></clipPath><clipPath id="0b93683b88"><path d="M 484.3125 0.0585938 L 1784.761719 0.0585938 L 1784.761719 1300.628906 L 484.3125 1300.628906 Z M 484.3125 0.0585938 " clip-rule="nonzero"/></clipPath><clipPath id="f599b90df5"><path d="M 1311.453125 0.0585938 L 1784.761719 0.0585938 L 1784.761719 473.488281 L 1311.453125 473.488281 Z M 1311.453125 0.0585938 " clip-rule="nonzero"/></clipPath><clipPath id="b8ec9a40e4"><path d="M 804 12 L 1784.761719 12 L 1784.761719 1300.628906 L 804 1300.628906 Z M 804 12 " clip-rule="nonzero"/></clipPath><clipPath id="ba9dcaa6c0"><path d="M 1721 9 L 1784.761719 9 L 1784.761719 473.488281 L 1721 473.488281 Z M 1721 9 " clip-rule="nonzero"/></clipPath></defs><path fill="#f15a24" d="M 1118.101562 1429.824219 C 1043.839844 1504.085938 965.871094 1560.246094 900.464844 1590.546875 L 885.097656 1291.773438 C 899.496094 1275.375 914.84375 1258.964844 931.054688 1242.765625 C 1076.542969 1097.277344 1236.351562 1021.25 1287.984375 1072.882812 C 1339.628906 1124.527344 1263.601562 1284.324219 1118.101562 1429.824219 " fill-opacity="1" fill-rule="nonzero"/><path fill="#e05421" d="M 900.464844 1590.546875 L 899.421875 1570.332031 C 954.445312 1538.097656 1015.070312 1490.9375 1073.410156 1432.601562 C 1176.800781 1329.207031 1245.109375 1218.589844 1257.460938 1144.6875 C 1273 1134.792969 1288.535156 1124.453125 1304.023438 1113.675781 C 1304.117188 1115.503906 1304.171875 1117.363281 1304.171875 1119.253906 C 1304.191406 1191.761719 1232.695312 1315.230469 1118.101562 1429.824219 C 1043.839844 1504.085938 965.871094 1560.246094 900.464844 1590.546875 " fill-opacity="1" fill-rule="nonzero"/><path fill="#f15a24" d="M 353.53125 665.246094 C 279.257812 739.503906 223.109375 817.472656 192.796875 882.882812 L 491.570312 898.25 C 507.980469 883.847656 524.378906 868.5 540.578125 852.292969 C 686.070312 706.800781 762.09375 547.003906 710.460938 495.363281 C 658.820312 443.730469 499.023438 519.753906 353.53125 665.246094 " fill-opacity="1" fill-rule="nonzero"/><path fill="#ededed" d="M 423.304688 894.742188 L 209.570312 883.761719 C 209.570312 883.753906 209.570312 883.753906 209.582031 883.742188 L 423.304688 894.742188 " fill-opacity="1" fill-rule="nonzero"/><path fill="#e05421" d="M 490.796875 898.207031 L 423.304688 894.742188 L 209.582031 883.742188 C 241.253906 833.109375 284.828125 778.542969 337.535156 725.835938 C 443.828125 619.53125 557.785156 550.320312 631.597656 540.882812 C 555.414062 663.832031 507.207031 787.332031 490.796875 898.207031 " fill-opacity="1" fill-rule="nonzero"/><g clip-path="url(#e543234fa0)"><path fill="#f56831" d="M 653.386719 1221.4375 L 653.238281 1221.511719 C 647.328125 1199.019531 636.777344 1179.445312 621.226562 1163.765625 C 605.539062 1147.960938 585.886719 1137.261719 563.25 1131.320312 L 563.257812 1131.308594 L 562.84375 1131.203125 C 562.503906 1131.117188 562.164062 1131.042969 561.824219 1130.957031 C 414.664062 1093.3125 253.558594 1168.835938 155.417969 1276.386719 C 151.644531 1280.53125 154.035156 1285.683594 158.945312 1283.898438 C 173.742188 1278.511719 187.941406 1274.023438 201.851562 1270.316406 C 205.339844 1269.390625 206.5625 1273.367188 203.617188 1276.035156 C 194.148438 1284.621094 184.773438 1293.550781 175.527344 1302.796875 C 28.238281 1450.148438 3.230469 1730.332031 0.0195312 1778.339844 C -0.246094 1782.25 2.730469 1785.25 6.652344 1784.984375 C 54.542969 1781.742188 334.84375 1756.796875 482.195312 1609.457031 C 491.261719 1600.390625 500.011719 1591.207031 508.4375 1581.917969 C 511.105469 1578.984375 515.082031 1580.21875 514.144531 1583.691406 C 510.488281 1597.339844 506.078125 1611.261719 500.796875 1625.75 C 499.011719 1630.660156 504.164062 1633.0625 508.3125 1629.277344 C 616.199219 1530.828125 691.882812 1368.988281 653.386719 1221.4375 " fill-opacity="1" fill-rule="nonzero"/></g><path fill="#fec34c" d="M 547.507812 1440.613281 C 522.457031 1474.550781 492.953125 1508.953125 459.578125 1542.335938 C 352.722656 1649.183594 204.660156 1685.863281 129.261719 1698.085938 C 101.339844 1702.601562 82.242188 1683.503906 86.757812 1655.582031 C 98.980469 1580.175781 135.660156 1432.121094 242.507812 1325.265625 C 260.636719 1307.144531 279.066406 1290.148438 297.570312 1274.398438 C 311.429688 1262.589844 325.324219 1251.484375 339.148438 1241.109375 C 344.175781 1237.335938 343.816406 1230.511719 338.554688 1230.40625 C 323.378906 1230.128906 307.839844 1230.585938 291.9375 1231.808594 C 289.613281 1231.992188 289.347656 1229.035156 291.566406 1227.496094 C 328.957031 1201.570312 372.894531 1181.378906 414.675781 1166.5 C 416.152344 1165.976562 417.621094 1165.457031 419.097656 1164.945312 C 487.105469 1141.265625 553.128906 1149.195312 594.601562 1188.136719 C 595.792969 1189.265625 596.972656 1190.402344 598.140625 1191.570312 C 599.363281 1192.792969 600.566406 1194.035156 601.734375 1195.289062 C 641.8125 1238.101562 648.03125 1307.207031 620.824219 1377.089844 C 620.140625 1378.820312 619.460938 1380.554688 618.761719 1382.296875 C 604.167969 1418.644531 583.773438 1456.300781 557.371094 1493.5625 C 555.839844 1495.710938 552.929688 1495.457031 553.089844 1493.179688 C 554.628906 1471.457031 555.183594 1441.210938 554.914062 1437.542969 C 554.851562 1436.660156 552.597656 1433.972656 549.792969 1437.5 C 548.996094 1438.507812 548.285156 1439.574219 547.507812 1440.613281 " fill-opacity="1" fill-rule="nonzero"/><path fill="#fbefa9" d="M 501.457031 1413.226562 C 428.449219 1486.230469 332.09375 1516.085938 283.253906 1527.160156 C 265.941406 1531.082031 253.898438 1519.050781 257.832031 1501.726562 C 268.898438 1452.898438 298.761719 1356.542969 371.769531 1283.539062 C 473.726562 1181.578125 585.410156 1127.960938 621.226562 1163.765625 C 657.03125 1199.585938 603.414062 1311.265625 501.457031 1413.226562 " fill-opacity="1" fill-rule="nonzero"/><g clip-path="url(#0b93683b88)"><path fill="#f2f2f2" d="M 1507.917969 942.390625 C 1287.898438 1162.40625 1030.714844 1290.402344 828.222656 1299.714844 C 766.503906 1302.574219 709.855469 1294.390625 660.902344 1274.40625 L 510.363281 1123.878906 C 490.304688 1074.722656 482.144531 1017.828125 485.097656 955.824219 C 494.695312 753.460938 622.648438 496.636719 842.414062 276.875 C 1103.179688 16.109375 1528.003906 -3.488281 1702.085938 0.464844 C 1714.777344 0.773438 1726.753906 3.84375 1737.425781 9.125 C 1739.804688 10.328125 1742.113281 11.582031 1744.355469 12.953125 C 1744.929688 13.304688 1745.46875 13.652344 1746.023438 14.027344 C 1755.363281 20.105469 1763.433594 27.980469 1769.722656 37.175781 C 1770.085938 37.707031 1770.457031 38.257812 1770.796875 38.800781 C 1779.054688 51.480469 1783.945312 66.53125 1784.316406 82.683594 C 1786.261719 168.488281 1782.5 315.167969 1746.96875 473.128906 C 1710.40625 635.65625 1640.175781 810.128906 1507.917969 942.390625 " fill-opacity="1" fill-rule="nonzero"/></g><g clip-path="url(#f599b90df5)"><path fill="#f15a24" d="M 1595.824219 189.0625 C 1512.582031 105.8125 1411.421875 54.804688 1311.632812 37.90625 C 1469.601562 2.335938 1616.347656 -1.429688 1702.136719 0.515625 C 1747.148438 1.558594 1783.347656 37.746094 1784.371094 82.738281 C 1786.316406 168.539062 1782.550781 315.285156 1746.988281 473.277344 C 1730.089844 373.476562 1679.074219 272.304688 1595.824219 189.0625 " fill-opacity="1" fill-rule="nonzero"/></g><path fill="#4d4d4d" d="M 828.222656 1299.714844 C 766.503906 1302.574219 709.855469 1294.390625 660.902344 1274.40625 L 510.363281 1123.878906 C 490.304688 1074.722656 482.144531 1017.828125 485.097656 955.824219 C 555.648438 990.152344 623.605469 1038.011719 684.464844 1098.882812 C 745.746094 1160.152344 793.863281 1228.621094 828.222656 1299.714844 " fill-opacity="1" fill-rule="nonzero"/><g clip-path="url(#b8ec9a40e4)"><path fill="#ececec" d="M 804.648438 1300.265625 C 804.640625 1300.265625 804.628906 1300.265625 804.628906 1300.265625 C 804.628906 1300.265625 804.640625 1300.265625 804.648438 1300.265625 M 804.648438 1300.265625 C 812.417969 1300.265625 820.285156 1300.085938 828.222656 1299.714844 C 846.792969 1298.863281 865.804688 1297.015625 885.222656 1294.1875 C 865.804688 1297.015625 846.792969 1298.863281 828.222656 1299.714844 C 820.285156 1300.085938 812.429688 1300.265625 804.648438 1300.265625 M 1304.023438 1113.675781 C 1373.660156 1065.199219 1442.445312 1007.859375 1507.917969 942.390625 C 1584.898438 865.410156 1640.855469 774.132812 1681.402344 679.230469 C 1640.855469 774.132812 1584.898438 865.410156 1507.917969 942.390625 C 1442.445312 1007.859375 1373.660156 1065.199219 1304.023438 1113.675781 M 1681.582031 678.808594 C 1681.59375 678.785156 1681.59375 678.773438 1681.605469 678.765625 C 1681.605469 678.773438 1681.59375 678.796875 1681.582031 678.808594 M 1746.988281 473.277344 L 1746.96875 473.136719 C 1746.96875 473.179688 1746.980469 473.234375 1746.988281 473.277344 C 1777.898438 335.957031 1784.785156 207.140625 1784.785156 119.449219 C 1784.785156 207.140625 1777.898438 335.957031 1746.988281 473.277344 M 1784.371094 82.738281 C 1784.347656 81.960938 1784.328125 81.1875 1784.285156 80.410156 C 1784.328125 81.1875 1784.347656 81.960938 1784.371094 82.738281 M 1784.285156 80.355469 C 1784.273438 80.335938 1784.273438 80.324219 1784.273438 80.292969 C 1784.273438 80.316406 1784.273438 80.347656 1784.285156 80.355469 M 1784.273438 80.207031 C 1784.273438 80.199219 1784.273438 80.1875 1784.273438 80.175781 C 1784.273438 80.1875 1784.273438 80.199219 1784.273438 80.207031 M 1744.355469 12.953125 C 1744.140625 12.824219 1743.941406 12.707031 1743.726562 12.582031 C 1743.941406 12.707031 1744.140625 12.824219 1744.355469 12.953125 M 1743.652344 12.539062 C 1743.652344 12.539062 1743.640625 12.527344 1743.640625 12.527344 C 1743.640625 12.527344 1743.652344 12.539062 1743.652344 12.539062 " fill-opacity="1" fill-rule="nonzero"/></g><path fill="#e0e0e0" d="M 828.222656 1299.714844 C 798.644531 1238.515625 758.863281 1179.242188 709.261719 1124.847656 C 709.546875 1124.621094 709.835938 1124.398438 710.109375 1124.175781 L 742.410156 1154.902344 C 778.800781 1168.699219 819.582031 1175.40625 863.5 1175.40625 C 874.222656 1175.40625 885.136719 1175 896.214844 1174.203125 C 1081.445312 1160.992188 1314.109375 1037.820312 1510.667969 831.226562 C 1628.8125 707.058594 1689.203125 545.644531 1719.046875 395.945312 L 1719.070312 396.070312 C 1720.035156 391.234375 1720.960938 386.421875 1721.863281 381.617188 C 1733.394531 411.875 1741.78125 442.582031 1746.96875 473.136719 C 1731.71875 540.914062 1710.609375 610.765625 1681.605469 678.765625 C 1681.59375 678.773438 1681.59375 678.785156 1681.582031 678.808594 C 1681.519531 678.957031 1681.464844 679.082031 1681.402344 679.230469 C 1640.855469 774.132812 1584.898438 865.410156 1507.917969 942.390625 C 1442.445312 1007.859375 1373.660156 1065.199219 1304.023438 1113.675781 C 1288.535156 1124.453125 1273 1134.792969 1257.460938 1144.6875 C 1129.535156 1226.125 1000.519531 1277.382812 885.222656 1294.1875 C 865.804688 1297.015625 846.792969 1298.863281 828.222656 1299.714844 M 1746.382812 14.269531 C 1743.589844 12.429688 1740.6875 10.761719 1737.667969 9.265625 C 1737.667969 9.265625 1737.667969 9.265625 1737.667969 9.253906 C 1739.710938 10.285156 1741.707031 11.367188 1743.640625 12.527344 C 1743.640625 12.527344 1743.652344 12.539062 1743.652344 12.539062 C 1743.675781 12.546875 1743.707031 12.558594 1743.726562 12.582031 C 1743.941406 12.707031 1744.140625 12.824219 1744.355469 12.953125 C 1744.929688 13.304688 1745.46875 13.652344 1746.023438 14.027344 C 1746.152344 14.101562 1746.265625 14.183594 1746.382812 14.269531 " fill-opacity="1" fill-rule="nonzero"/><g clip-path="url(#ba9dcaa6c0)"><path fill="#df5321" d="M 1746.988281 473.277344 C 1746.980469 473.234375 1746.96875 473.179688 1746.96875 473.136719 C 1741.78125 442.582031 1733.394531 411.875 1721.863281 381.617188 C 1748.09375 241.683594 1748.117188 113.464844 1744.523438 37.546875 C 1744.046875 27.460938 1741.621094 17.9375 1737.667969 9.265625 C 1740.6875 10.761719 1743.589844 12.429688 1746.382812 14.269531 C 1746.585938 14.410156 1746.777344 14.546875 1746.980469 14.683594 C 1747.488281 15.023438 1748 15.375 1748.5 15.726562 C 1749.050781 16.109375 1749.605469 16.503906 1750.148438 16.90625 C 1750.753906 17.351562 1751.359375 17.808594 1751.953125 18.277344 C 1752.390625 18.617188 1752.824219 18.957031 1753.25 19.308594 C 1753.941406 19.859375 1754.601562 20.433594 1755.269531 21.007812 C 1755.597656 21.304688 1755.9375 21.59375 1756.277344 21.890625 C 1757.023438 22.550781 1757.746094 23.230469 1758.46875 23.921875 L 1759.203125 24.621094 C 1760.007812 25.417969 1760.796875 26.226562 1761.5625 27.046875 L 1762.007812 27.511719 C 1762.902344 28.480469 1763.761719 29.457031 1764.613281 30.457031 L 1764.6875 30.550781 C 1766.707031 32.953125 1768.585938 35.472656 1770.328125 38.097656 L 1770.796875 38.800781 L 1770.96875 39.066406 C 1772.945312 42.148438 1774.742188 45.359375 1776.324219 48.695312 L 1776.367188 48.800781 C 1780.894531 58.410156 1783.679688 68.996094 1784.273438 80.175781 C 1784.273438 80.1875 1784.273438 80.199219 1784.273438 80.207031 C 1784.273438 80.238281 1784.273438 80.273438 1784.273438 80.292969 C 1784.273438 80.324219 1784.273438 80.335938 1784.285156 80.355469 C 1784.285156 80.378906 1784.285156 80.390625 1784.285156 80.410156 C 1784.328125 81.1875 1784.347656 81.960938 1784.371094 82.738281 C 1784.625 93.972656 1784.785156 106.238281 1784.785156 119.449219 C 1784.785156 207.140625 1777.898438 335.957031 1746.988281 473.277344 " fill-opacity="1" fill-rule="nonzero"/></g><path fill="#474747" d="M 804.648438 1300.265625 C 804.640625 1300.265625 804.628906 1300.265625 804.628906 1300.265625 C 752.570312 1300.265625 704.53125 1291.988281 662.210938 1274.9375 C 662.144531 1274.917969 662.082031 1274.886719 662.007812 1274.863281 C 661.644531 1274.714844 661.273438 1274.566406 660.902344 1274.40625 L 595.695312 1209.203125 C 626.082031 1187.820312 665.492188 1159.113281 709.261719 1124.847656 C 758.863281 1179.242188 798.644531 1238.515625 828.222656 1299.714844 C 820.285156 1300.085938 812.417969 1300.265625 804.648438 1300.265625 " fill-opacity="1" fill-rule="nonzero"/><path fill="#e0e0e0" d="M 643.023438 1060.34375 C 593.371094 1017.46875 540.015625 982.542969 485.097656 955.824219 C 494.695312 753.460938 622.648438 496.636719 842.414062 276.875 C 857.453125 261.835938 873.066406 247.625 889.125 234.148438 C 888.167969 235.148438 887.179688 236.117188 886.222656 237.125 C 689.894531 443.472656 578.488281 681.644531 574.238281 867.195312 C 572.929688 924.054688 581.6875 975.964844 601.160156 1020.519531 L 643.023438 1060.34375 " fill-opacity="1" fill-rule="nonzero"/><path fill="#474747" d="M 575.535156 1189.042969 L 510.363281 1123.878906 C 492.972656 1081.25 484.523438 1032.804688 484.515625 980.246094 C 484.503906 972.203125 484.707031 964.0625 485.097656 955.824219 C 540.015625 982.542969 593.371094 1017.46875 643.023438 1060.34375 L 659.519531 1076.039062 C 625.234375 1119.828125 596.75 1158.910156 575.535156 1189.042969 " fill-opacity="1" fill-rule="nonzero"/><path fill="#f15a24" d="M 791.523438 1057.726562 C 655.609375 1173.449219 532.96875 1251.769531 532.96875 1251.769531 C 532.96875 1251.769531 609.640625 1131.402344 727.011719 993.226562 C 841.519531 858.414062 967.753906 781.371094 985.566406 799.183594 C 1003.378906 816.996094 926.195312 943.082031 791.523438 1057.726562 " fill-opacity="1" fill-rule="nonzero"/><path fill="#f5835b" d="M 585.601562 1199.105469 C 585.601562 1199.105469 661.167969 1110.976562 764.335938 1001.824219 C 861.820312 898.6875 950.738281 822.851562 960.875 822.851562 C 961.207031 822.851562 961.449219 822.9375 961.609375 823.097656 C 966.730469 828.21875 889.324219 919.6875 782.882812 1020.378906 C 675.453125 1121.996094 585.601562 1199.105469 585.601562 1199.105469 " fill-opacity="1" fill-rule="nonzero"/><path fill="#f15a24" d="M 1086.769531 490.867188 C 1098.246094 382.871094 1195.101562 304.625 1303.109375 316.105469 C 1411.101562 327.582031 1489.347656 424.4375 1477.871094 532.433594 C 1466.390625 640.4375 1369.535156 718.683594 1261.53125 707.207031 C 1153.535156 695.726562 1075.289062 598.859375 1086.769531 490.867188 " fill-opacity="1" fill-rule="nonzero"/><path fill="#0071bc" d="M 1143.023438 496.847656 C 1151.207031 419.910156 1220.195312 364.175781 1297.125 372.359375 C 1374.0625 380.53125 1429.789062 449.53125 1421.613281 526.460938 C 1413.441406 603.386719 1344.441406 659.121094 1267.515625 650.949219 C 1190.585938 642.765625 1134.851562 573.777344 1143.023438 496.847656 " fill-opacity="1" fill-rule="nonzero"/><path fill="#e05421" d="M 1282.511719 651.746094 C 1353.222656 651.726562 1413.972656 598.351562 1421.613281 526.460938 C 1421.625 526.394531 1421.625 526.332031 1421.636719 526.257812 C 1421.625 526.332031 1421.625 526.394531 1421.613281 526.460938 C 1413.972656 598.351562 1353.222656 651.734375 1282.511719 651.746094 M 1421.644531 526.195312 C 1421.644531 526.152344 1421.65625 526.097656 1421.65625 526.054688 C 1421.65625 526.109375 1421.644531 526.152344 1421.644531 526.195312 M 1421.667969 525.980469 C 1421.667969 525.929688 1421.679688 525.855469 1421.6875 525.800781 C 1421.679688 525.863281 1421.667969 525.917969 1421.667969 525.980469 M 1421.6875 525.707031 C 1421.699219 525.671875 1421.699219 525.652344 1421.699219 525.621094 C 1421.699219 525.652344 1421.699219 525.671875 1421.6875 525.707031 M 1421.710938 525.503906 C 1421.71875 525.480469 1421.71875 525.460938 1421.71875 525.441406 C 1421.71875 525.460938 1421.710938 525.480469 1421.710938 525.503906 M 1143.023438 496.847656 C 1143.535156 492.035156 1144.289062 487.316406 1145.257812 482.683594 C 1144.289062 487.316406 1143.535156 492.035156 1143.023438 496.847656 " fill-opacity="1" fill-rule="nonzero"/><path fill="#0069af" d="M 1282.488281 651.746094 C 1277.546875 651.746094 1272.542969 651.480469 1267.515625 650.949219 C 1195.613281 643.308594 1142.226562 582.546875 1142.226562 511.824219 C 1142.226562 506.882812 1142.492188 501.875 1143.023438 496.847656 C 1143.535156 492.035156 1144.289062 487.316406 1145.257812 482.683594 C 1154.109375 543.464844 1200.40625 592.417969 1260.933594 598.851562 C 1265.410156 599.328125 1269.839844 599.5625 1274.242188 599.5625 C 1341.230469 599.5625 1399.273438 545.699219 1406.945312 473.507812 C 1407.839844 465.15625 1407.976562 456.910156 1407.488281 448.820312 C 1419.019531 471.734375 1424.429688 498.0625 1421.71875 525.441406 C 1421.71875 525.460938 1421.71875 525.480469 1421.710938 525.503906 C 1421.710938 525.546875 1421.710938 525.578125 1421.699219 525.621094 C 1421.699219 525.652344 1421.699219 525.671875 1421.6875 525.707031 C 1421.6875 525.738281 1421.6875 525.769531 1421.6875 525.800781 C 1421.679688 525.855469 1421.667969 525.929688 1421.667969 525.980469 C 1421.667969 526.003906 1421.65625 526.035156 1421.65625 526.054688 C 1421.65625 526.097656 1421.644531 526.152344 1421.644531 526.195312 C 1421.636719 526.214844 1421.636719 526.238281 1421.636719 526.257812 C 1421.625 526.332031 1421.625 526.394531 1421.613281 526.460938 C 1413.972656 598.351562 1353.222656 651.726562 1282.511719 651.746094 C 1282.511719 651.746094 1282.5 651.746094 1282.488281 651.746094 " fill-opacity="1" fill-rule="nonzero"/></svg>